<?xml version="1.0" encoding="utf-8" standalone="no"?>
<!DOCTYPE svg PUBLIC "-//W3C//DTD SVG 1.1//EN"
  "http://www.w3.org/Graphics/SVG/1.1/DTD/svg11.dtd">
<svg xmlns:xlink="http://www.w3.org/1999/xlink" width="460.8pt" height="345.6pt" viewBox="0 0 460.8 345.6" xmlns="http://www.w3.org/2000/svg" version="1.1">
 <metadata>
  <rdf:RDF xmlns:dc="http://purl.org/dc/elements/1.1/" xmlns:cc="http://creativecommons.org/ns#" xmlns:rdf="http://www.w3.org/1999/02/22-rdf-syntax-ns#">
   <cc:Work>
    <dc:type rdf:resource="http://purl.org/dc/dcmitype/StillImage"/>
    <dc:date>2025-09-16T16:54:05.195558</dc:date>
    <dc:format>image/svg+xml</dc:format>
    <dc:creator>
     <cc:Agent>
      <dc:title>Matplotlib v3.10.1, https://matplotlib.org/</dc:title>
     </cc:Agent>
    </dc:creator>
   </cc:Work>
  </rdf:RDF>
 </metadata>
 <defs>
  <style type="text/css">*{stroke-linejoin: round; stroke-linecap: butt}</style>
 </defs>
 <g id="figure_1">
  <g id="patch_1">
   <path d="M 0 345.6 
L 460.8 345.6 
L 460.8 0 
L 0 0 
z
" style="fill: #ffffff"/>
  </g>
  <g id="axes_1">
   <g id="patch_2">
    <path d="M 57.6 307.584 
L 414.72 307.584 
L 414.72 41.472 
L 57.6 41.472 
z
" style="fill: #ffffff"/>
   </g>
   <g id="matplotlib.axis_1">
    <g id="xtick_1">
     <g id="line2d_1">
      <defs>
       <path id="mc89f270bb0" d="M 0 0 
L 0 3.5 
" style="stroke: #000000; stroke-width: 0.8"/>
      </defs>
      <g>
       <use xlink:href="#mc89f270bb0" x="73.832727" y="307.584" style="stroke: #000000; stroke-width: 0.8"/>
      </g>
     </g>
     <g id="text_1">
      <!-- 400 -->
      <g transform="translate(64.288977 322.182437) scale(0.1 -0.1)">
       <defs>
        <path id="DejaVuSans-34" d="M 2419 4116 
L 825 1625 
L 2419 1625 
L 2419 4116 
z
M 2253 4666 
L 3047 4666 
L 3047 1625 
L 3713 1625 
L 3713 1100 
L 3047 1100 
L 3047 0 
L 2419 0 
L 2419 1100 
L 313 1100 
L 313 1709 
L 2253 4666 
z
" transform="scale(0.015625)"/>
        <path id="DejaVuSans-30" d="M 2034 4250 
Q 1547 4250 1301 3770 
Q 1056 3291 1056 2328 
Q 1056 1369 1301 889 
Q 1547 409 2034 409 
Q 2525 409 2770 889 
Q 3016 1369 3016 2328 
Q 3016 3291 2770 3770 
Q 2525 4250 2034 4250 
z
M 2034 4750 
Q 2819 4750 3233 4129 
Q 3647 3509 3647 2328 
Q 3647 1150 3233 529 
Q 2819 -91 2034 -91 
Q 1250 -91 836 529 
Q 422 1150 422 2328 
Q 422 3509 836 4129 
Q 1250 4750 2034 4750 
z
" transform="scale(0.015625)"/>
       </defs>
       <use xlink:href="#DejaVuSans-34"/>
       <use xlink:href="#DejaVuSans-30" transform="translate(63.623047 0)"/>
       <use xlink:href="#DejaVuSans-30" transform="translate(127.246094 0)"/>
      </g>
     </g>
    </g>
    <g id="xtick_2">
     <g id="line2d_2">
      <g>
       <use xlink:href="#mc89f270bb0" x="127.941818" y="307.584" style="stroke: #000000; stroke-width: 0.8"/>
      </g>
     </g>
     <g id="text_2">
      <!-- 450 -->
      <g transform="translate(118.398068 322.182437) scale(0.1 -0.1)">
       <defs>
        <path id="DejaVuSans-35" d="M 691 4666 
L 3169 4666 
L 3169 4134 
L 1269 4134 
L 1269 2991 
Q 1406 3038 1543 3061 
Q 1681 3084 1819 3084 
Q 2600 3084 3056 2656 
Q 3513 2228 3513 1497 
Q 3513 744 3044 326 
Q 2575 -91 1722 -91 
Q 1428 -91 1123 -41 
Q 819 9 494 109 
L 494 744 
Q 775 591 1075 516 
Q 1375 441 1709 441 
Q 2250 441 2565 725 
Q 2881 1009 2881 1497 
Q 2881 1984 2565 2268 
Q 2250 2553 1709 2553 
Q 1456 2553 1204 2497 
Q 953 2441 691 2322 
L 691 4666 
z
" transform="scale(0.015625)"/>
       </defs>
       <use xlink:href="#DejaVuSans-34"/>
       <use xlink:href="#DejaVuSans-35" transform="translate(63.623047 0)"/>
       <use xlink:href="#DejaVuSans-30" transform="translate(127.246094 0)"/>
      </g>
     </g>
    </g>
    <g id="xtick_3">
     <g id="line2d_3">
      <g>
       <use xlink:href="#mc89f270bb0" x="182.050909" y="307.584" style="stroke: #000000; stroke-width: 0.8"/>
      </g>
     </g>
     <g id="text_3">
      <!-- 500 -->
      <g transform="translate(172.507159 322.182437) scale(0.1 -0.1)">
       <use xlink:href="#DejaVuSans-35"/>
       <use xlink:href="#DejaVuSans-30" transform="translate(63.623047 0)"/>
       <use xlink:href="#DejaVuSans-30" transform="translate(127.246094 0)"/>
      </g>
     </g>
    </g>
    <g id="xtick_4">
     <g id="line2d_4">
      <g>
       <use xlink:href="#mc89f270bb0" x="236.16" y="307.584" style="stroke: #000000; stroke-width: 0.8"/>
      </g>
     </g>
     <g id="text_4">
      <!-- 550 -->
      <g transform="translate(226.61625 322.182437) scale(0.1 -0.1)">
       <use xlink:href="#DejaVuSans-35"/>
       <use xlink:href="#DejaVuSans-35" transform="translate(63.623047 0)"/>
       <use xlink:href="#DejaVuSans-30" transform="translate(127.246094 0)"/>
      </g>
     </g>
    </g>
    <g id="xtick_5">
     <g id="line2d_5">
      <g>
       <use xlink:href="#mc89f270bb0" x="290.269091" y="307.584" style="stroke: #000000; stroke-width: 0.8"/>
      </g>
     </g>
     <g id="text_5">
      <!-- 600 -->
      <g transform="translate(280.725341 322.182437) scale(0.1 -0.1)">
       <defs>
        <path id="DejaVuSans-36" d="M 2113 2584 
Q 1688 2584 1439 2293 
Q 1191 2003 1191 1497 
Q 1191 994 1439 701 
Q 1688 409 2113 409 
Q 2538 409 2786 701 
Q 3034 994 3034 1497 
Q 3034 2003 2786 2293 
Q 2538 2584 2113 2584 
z
M 3366 4563 
L 3366 3988 
Q 3128 4100 2886 4159 
Q 2644 4219 2406 4219 
Q 1781 4219 1451 3797 
Q 1122 3375 1075 2522 
Q 1259 2794 1537 2939 
Q 1816 3084 2150 3084 
Q 2853 3084 3261 2657 
Q 3669 2231 3669 1497 
Q 3669 778 3244 343 
Q 2819 -91 2113 -91 
Q 1303 -91 875 529 
Q 447 1150 447 2328 
Q 447 3434 972 4092 
Q 1497 4750 2381 4750 
Q 2619 4750 2861 4703 
Q 3103 4656 3366 4563 
z
" transform="scale(0.015625)"/>
       </defs>
       <use xlink:href="#DejaVuSans-36"/>
       <use xlink:href="#DejaVuSans-30" transform="translate(63.623047 0)"/>
       <use xlink:href="#DejaVuSans-30" transform="translate(127.246094 0)"/>
      </g>
     </g>
    </g>
    <g id="xtick_6">
     <g id="line2d_6">
      <g>
       <use xlink:href="#mc89f270bb0" x="344.378182" y="307.584" style="stroke: #000000; stroke-width: 0.8"/>
      </g>
     </g>
     <g id="text_6">
      <!-- 650 -->
      <g transform="translate(334.834432 322.182437) scale(0.1 -0.1)">
       <use xlink:href="#DejaVuSans-36"/>
       <use xlink:href="#DejaVuSans-35" transform="translate(63.623047 0)"/>
       <use xlink:href="#DejaVuSans-30" transform="translate(127.246094 0)"/>
      </g>
     </g>
    </g>
    <g id="xtick_7">
     <g id="line2d_7">
      <g>
       <use xlink:href="#mc89f270bb0" x="398.487273" y="307.584" style="stroke: #000000; stroke-width: 0.8"/>
      </g>
     </g>
     <g id="text_7">
      <!-- 700 -->
      <g transform="translate(388.943523 322.182437) scale(0.1 -0.1)">
       <defs>
        <path id="DejaVuSans-37" d="M 525 4666 
L 3525 4666 
L 3525 4397 
L 1831 0 
L 1172 0 
L 2766 4134 
L 525 4134 
L 525 4666 
z
" transform="scale(0.015625)"/>
       </defs>
       <use xlink:href="#DejaVuSans-37"/>
       <use xlink:href="#DejaVuSans-30" transform="translate(63.623047 0)"/>
       <use xlink:href="#DejaVuSans-30" transform="translate(127.246094 0)"/>
      </g>
     </g>
    </g>
   </g>
   <g id="matplotlib.axis_2">
    <g id="ytick_1">
     <g id="line2d_8">
      <defs>
       <path id="mebdcb54c12" d="M 0 0 
L -3.5 0 
" style="stroke: #000000; stroke-width: 0.8"/>
      </defs>
      <g>
       <use xlink:href="#mebdcb54c12" x="57.6" y="295.488" style="stroke: #000000; stroke-width: 0.8"/>
      </g>
     </g>
     <g id="text_8">
      <!-- 0.0 -->
      <g transform="translate(34.696875 299.287219) scale(0.1 -0.1)">
       <defs>
        <path id="DejaVuSans-2e" d="M 684 794 
L 1344 794 
L 1344 0 
L 684 0 
L 684 794 
z
" transform="scale(0.015625)"/>
       </defs>
       <use xlink:href="#DejaVuSans-30"/>
       <use xlink:href="#DejaVuSans-2e" transform="translate(63.623047 0)"/>
       <use xlink:href="#DejaVuSans-30" transform="translate(95.410156 0)"/>
      </g>
     </g>
    </g>
    <g id="ytick_2">
     <g id="line2d_9">
      <g>
       <use xlink:href="#mebdcb54c12" x="57.6" y="246.932447" style="stroke: #000000; stroke-width: 0.8"/>
      </g>
     </g>
     <g id="text_9">
      <!-- 0.2 -->
      <g transform="translate(34.696875 250.731666) scale(0.1 -0.1)">
       <defs>
        <path id="DejaVuSans-32" d="M 1228 531 
L 3431 531 
L 3431 0 
L 469 0 
L 469 531 
Q 828 903 1448 1529 
Q 2069 2156 2228 2338 
Q 2531 2678 2651 2914 
Q 2772 3150 2772 3378 
Q 2772 3750 2511 3984 
Q 2250 4219 1831 4219 
Q 1534 4219 1204 4116 
Q 875 4013 500 3803 
L 500 4441 
Q 881 4594 1212 4672 
Q 1544 4750 1819 4750 
Q 2544 4750 2975 4387 
Q 3406 4025 3406 3419 
Q 3406 3131 3298 2873 
Q 3191 2616 2906 2266 
Q 2828 2175 2409 1742 
Q 1991 1309 1228 531 
z
" transform="scale(0.015625)"/>
       </defs>
       <use xlink:href="#DejaVuSans-30"/>
       <use xlink:href="#DejaVuSans-2e" transform="translate(63.623047 0)"/>
       <use xlink:href="#DejaVuSans-32" transform="translate(95.410156 0)"/>
      </g>
     </g>
    </g>
    <g id="ytick_3">
     <g id="line2d_10">
      <g>
       <use xlink:href="#mebdcb54c12" x="57.6" y="198.376894" style="stroke: #000000; stroke-width: 0.8"/>
      </g>
     </g>
     <g id="text_10">
      <!-- 0.4 -->
      <g transform="translate(34.696875 202.176113) scale(0.1 -0.1)">
       <use xlink:href="#DejaVuSans-30"/>
       <use xlink:href="#DejaVuSans-2e" transform="translate(63.623047 0)"/>
       <use xlink:href="#DejaVuSans-34" transform="translate(95.410156 0)"/>
      </g>
     </g>
    </g>
    <g id="ytick_4">
     <g id="line2d_11">
      <g>
       <use xlink:href="#mebdcb54c12" x="57.6" y="149.821341" style="stroke: #000000; stroke-width: 0.8"/>
      </g>
     </g>
     <g id="text_11">
      <!-- 0.6 -->
      <g transform="translate(34.696875 153.62056) scale(0.1 -0.1)">
       <use xlink:href="#DejaVuSans-30"/>
       <use xlink:href="#DejaVuSans-2e" transform="translate(63.623047 0)"/>
       <use xlink:href="#DejaVuSans-36" transform="translate(95.410156 0)"/>
      </g>
     </g>
    </g>
    <g id="ytick_5">
     <g id="line2d_12">
      <g>
       <use xlink:href="#mebdcb54c12" x="57.6" y="101.265788" style="stroke: #000000; stroke-width: 0.8"/>
      </g>
     </g>
     <g id="text_12">
      <!-- 0.8 -->
      <g transform="translate(34.696875 105.065007) scale(0.1 -0.1)">
       <defs>
        <path id="DejaVuSans-38" d="M 2034 2216 
Q 1584 2216 1326 1975 
Q 1069 1734 1069 1313 
Q 1069 891 1326 650 
Q 1584 409 2034 409 
Q 2484 409 2743 651 
Q 3003 894 3003 1313 
Q 3003 1734 2745 1975 
Q 2488 2216 2034 2216 
z
M 1403 2484 
Q 997 2584 770 2862 
Q 544 3141 544 3541 
Q 544 4100 942 4425 
Q 1341 4750 2034 4750 
Q 2731 4750 3128 4425 
Q 3525 4100 3525 3541 
Q 3525 3141 3298 2862 
Q 3072 2584 2669 2484 
Q 3125 2378 3379 2068 
Q 3634 1759 3634 1313 
Q 3634 634 3220 271 
Q 2806 -91 2034 -91 
Q 1263 -91 848 271 
Q 434 634 434 1313 
Q 434 1759 690 2068 
Q 947 2378 1403 2484 
z
M 1172 3481 
Q 1172 3119 1398 2916 
Q 1625 2713 2034 2713 
Q 2441 2713 2670 2916 
Q 2900 3119 2900 3481 
Q 2900 3844 2670 4047 
Q 2441 4250 2034 4250 
Q 1625 4250 1398 4047 
Q 1172 3844 1172 3481 
z
" transform="scale(0.015625)"/>
       </defs>
       <use xlink:href="#DejaVuSans-30"/>
       <use xlink:href="#DejaVuSans-2e" transform="translate(63.623047 0)"/>
       <use xlink:href="#DejaVuSans-38" transform="translate(95.410156 0)"/>
      </g>
     </g>
    </g>
    <g id="ytick_6">
     <g id="line2d_13">
      <g>
       <use xlink:href="#mebdcb54c12" x="57.6" y="52.710235" style="stroke: #000000; stroke-width: 0.8"/>
      </g>
     </g>
     <g id="text_13">
      <!-- 1.0 -->
      <g transform="translate(34.696875 56.509454) scale(0.1 -0.1)">
       <defs>
        <path id="DejaVuSans-31" d="M 794 531 
L 1825 531 
L 1825 4091 
L 703 3866 
L 703 4441 
L 1819 4666 
L 2450 4666 
L 2450 531 
L 3481 531 
L 3481 0 
L 794 0 
L 794 531 
z
" transform="scale(0.015625)"/>
       </defs>
       <use xlink:href="#DejaVuSans-31"/>
       <use xlink:href="#DejaVuSans-2e" transform="translate(63.623047 0)"/>
       <use xlink:href="#DejaVuSans-30" transform="translate(95.410156 0)"/>
      </g>
     </g>
    </g>
   </g>
   <g id="line2d_14">
    <path d="M 73.832727 295.488 
L 74.914909 287.822382 
L 75.997091 277.414968 
L 77.079273 260.371694 
L 78.161455 236.069191 
L 80.325818 193.276627 
L 81.408 177.181245 
L 85.736727 123.302799 
L 86.818909 107.221536 
L 87.901091 95.694851 
L 88.983273 88.647656 
L 90.065455 84.515538 
L 91.147636 85.240341 
L 92.229818 89.589569 
L 93.312 101.636837 
L 94.394182 112.15711 
L 96.558545 137.095553 
L 98.722909 165.350619 
L 99.805091 174.35334 
L 101.969455 198.475648 
L 103.051636 207.495907 
L 106.298182 231.28012 
L 107.380364 237.807218 
L 108.462545 242.963162 
L 110.626909 250.128987 
L 111.709091 252.871832 
L 113.873455 257.926074 
L 117.12 266.284648 
L 118.202182 268.345739 
L 119.284364 270.003609 
L 120.366545 271.435666 
L 126.859636 278.773134 
L 130.106182 281.582812 
L 132.270545 283.1036 
L 134.434909 284.17724 
L 137.681455 285.502443 
L 142.010182 287.072334 
L 144.174545 287.674728 
L 148.503273 288.566518 
L 151.749818 289.381981 
L 153.914182 289.542873 
L 158.242909 289.50385 
L 160.407273 289.897935 
L 162.571636 290.32934 
L 166.900364 290.890854 
L 170.146909 291.015228 
L 176.64 290.979106 
L 179.886545 291.282959 
L 184.215273 291.756856 
L 189.626182 291.938883 
L 195.037091 292.171008 
L 210.187636 293.216686 
L 215.598545 293.201408 
L 221.009455 293.160239 
L 240.488727 293.828504 
L 268.625455 294.992136 
L 278.365091 295.163132 
L 293.515636 295.181457 
L 311.912727 294.964599 
L 330.309818 294.736136 
L 342.213818 294.843513 
L 360.610909 295.112527 
L 370.350545 295.009642 
L 387.665455 294.736786 
L 390.912 294.830079 
L 396.322909 295.279499 
L 398.487273 295.488 
L 398.487273 295.488 
" clip-path="url(#p659aa9e768)" style="fill: none; stroke: #6500ab; stroke-width: 1.5; stroke-linecap: square"/>
   </g>
   <g id="line2d_15">
    <path d="M 73.832727 295.488 
L 75.997091 292.481636 
L 78.161455 284.284551 
L 79.243636 279.655588 
L 82.490182 274.66142 
L 85.736727 269.316022 
L 86.818909 266.351663 
L 88.983273 259.44721 
L 90.065455 255.307436 
L 91.147636 250.423051 
L 92.229818 246.129478 
L 93.312 239.136988 
L 94.394182 233.582695 
L 95.476364 226.583223 
L 96.558545 215.545093 
L 98.722909 195.424653 
L 99.805091 179.404442 
L 100.887273 165.861369 
L 101.969455 145.470936 
L 103.051636 127.948612 
L 104.133818 104.854537 
L 105.216 89.459291 
L 106.298182 79.670377 
L 107.380364 74.316172 
L 108.462545 75.251993 
L 109.544727 79.801776 
L 110.626909 90.508398 
L 111.709091 103.62352 
L 112.791273 122.424896 
L 113.873455 135.348081 
L 114.955636 159.801384 
L 118.202182 204.246251 
L 119.284364 215.333316 
L 120.366545 224.606544 
L 121.448727 231.7538 
L 122.530909 237.494243 
L 124.695273 249.65295 
L 126.859636 257.596825 
L 127.941818 261.137681 
L 130.106182 267.002543 
L 132.270545 272.220794 
L 134.434909 275.256501 
L 136.599273 277.90104 
L 138.763636 280.069883 
L 140.928 281.899041 
L 143.092364 283.303007 
L 146.338909 285.093185 
L 148.503273 286.134102 
L 150.667636 286.931779 
L 152.832 287.44212 
L 154.996364 287.996565 
L 157.160727 288.711312 
L 159.325091 289.508184 
L 161.489455 289.981337 
L 163.653818 290.098943 
L 165.818182 290.158391 
L 167.982545 290.441683 
L 173.393455 291.522791 
L 179.886545 292.448922 
L 182.050909 292.839757 
L 185.297455 292.909531 
L 196.119273 292.918245 
L 201.530182 293.174613 
L 204.776727 293.515937 
L 211.269818 294.335129 
L 214.516364 294.466599 
L 221.009455 294.367985 
L 232.913455 294.364482 
L 245.899636 294.367503 
L 251.310545 294.696913 
L 256.721455 295.058247 
L 261.050182 295.109815 
L 266.461091 294.831237 
L 270.789818 294.735402 
L 275.118545 294.873521 
L 281.611636 295.121387 
L 290.269091 295.108551 
L 298.926545 295.140842 
L 310.830545 295.445106 
L 316.241455 295.488 
L 398.487273 295.488 
L 398.487273 295.488 
" clip-path="url(#p659aa9e768)" style="fill: none; stroke: #7600c2; stroke-width: 1.5; stroke-linecap: square"/>
   </g>
   <g id="line2d_16">
    <path d="M 73.832727 295.488 
L 74.914909 294.127977 
L 77.079273 292.030484 
L 79.243636 288.113964 
L 80.325818 286.854613 
L 81.408 286.179065 
L 83.572364 285.338972 
L 84.654545 284.687743 
L 86.818909 282.937832 
L 91.147636 279.020822 
L 92.229818 278.230138 
L 93.312 277.020444 
L 94.394182 275.416049 
L 96.558545 271.355208 
L 97.640727 269.128925 
L 99.805091 262.173768 
L 101.969455 254.640314 
L 104.133818 243.773933 
L 107.380364 225.023704 
L 108.462545 212.191548 
L 109.544727 200.879587 
L 111.709091 163.158978 
L 112.791273 141.552984 
L 113.873455 117.399294 
L 117.12 57.028119 
L 118.202182 53.568 
L 119.284364 57.689275 
L 120.366545 66.87263 
L 121.448727 82.35666 
L 123.613091 120.659337 
L 125.777455 165.391331 
L 127.941818 199.278855 
L 130.106182 221.203774 
L 131.188364 230.31872 
L 132.270545 237.55532 
L 134.434909 249.594085 
L 135.517091 254.798599 
L 137.681455 261.654557 
L 139.845818 267.443923 
L 140.928 270.03512 
L 143.092364 273.611331 
L 145.256727 276.665614 
L 147.421091 279.200429 
L 149.585455 281.405272 
L 153.914182 284.10769 
L 156.078545 285.362081 
L 162.571636 287.848719 
L 166.900364 289.175022 
L 169.064727 289.675121 
L 177.722182 291.252569 
L 180.968727 291.733631 
L 187.461818 292.208421 
L 196.119273 292.57249 
L 209.105455 293.036962 
L 222.091636 293.72545 
L 236.16 294.043539 
L 246.981818 294.332093 
L 251.310545 294.65955 
L 256.721455 295.091894 
L 259.968 295.082681 
L 263.214545 294.834074 
L 267.543273 294.422776 
L 270.789818 294.363618 
L 274.036364 294.494165 
L 283.776 295.144234 
L 288.104727 295.168816 
L 296.762182 295.12204 
L 305.419636 295.337863 
L 312.994909 295.486193 
L 318.405818 295.416687 
L 331.392 295.053041 
L 341.131636 295.09923 
L 353.035636 295.399745 
L 360.610909 295.488 
L 394.158545 295.377941 
L 398.487273 295.112183 
L 398.487273 295.112183 
" clip-path="url(#p659aa9e768)" style="fill: none; stroke: #7500c9; stroke-width: 1.5; stroke-linecap: square"/>
   </g>
   <g id="line2d_17">
    <path d="M 73.832727 294.675228 
L 74.914909 294.842286 
L 75.997091 294.29393 
L 80.325818 290.92043 
L 83.572364 289.667815 
L 85.736727 288.931132 
L 86.818909 288.686168 
L 91.147636 288.163201 
L 93.312 287.451763 
L 97.640727 285.406179 
L 101.969455 282.541141 
L 104.133818 280.752573 
L 105.216 279.751935 
L 106.298182 278.49455 
L 108.462545 275.370468 
L 109.544727 273.112656 
L 111.709091 266.794466 
L 116.037818 253.245974 
L 117.12 248.109392 
L 119.284364 235.582557 
L 120.366545 228.777026 
L 122.530909 206.61154 
L 123.613091 193.933863 
L 124.695273 175.937235 
L 126.859636 143.628471 
L 127.941818 115.144298 
L 131.188364 60.309163 
L 132.270545 56.357398 
L 133.352727 57.925789 
L 134.434909 70.747811 
L 136.599273 107.810955 
L 137.681455 129.254587 
L 139.845818 174.467361 
L 140.928 191.522142 
L 142.010182 203.667903 
L 143.092364 213.532787 
L 144.174545 224.627467 
L 146.338909 239.34229 
L 148.503273 250.579041 
L 151.749818 263.038807 
L 152.832 266.120184 
L 153.914182 268.599406 
L 156.078545 272.620721 
L 158.242909 276.083468 
L 159.325091 277.499648 
L 162.571636 280.584461 
L 164.736 282.662276 
L 166.900364 284.370556 
L 170.146909 286.61832 
L 172.311273 287.798015 
L 174.475636 288.741354 
L 176.64 289.325632 
L 180.968727 290.137688 
L 186.379636 290.936508 
L 192.872727 291.458238 
L 229.666909 293.979682 
L 237.242182 294.207336 
L 244.817455 294.535603 
L 256.721455 295.125462 
L 263.214545 295.177532 
L 287.022545 295.115759 
L 309.748364 295.187533 
L 323.816727 295.488 
L 398.487273 295.488 
L 398.487273 295.488 
" clip-path="url(#p659aa9e768)" style="fill: none; stroke: #5500c9; stroke-width: 1.5; stroke-linecap: square"/>
   </g>
   <g id="line2d_18">
    <path d="M 73.832727 295.112183 
L 74.914909 294.569024 
L 78.161455 292.187395 
L 81.408 289.816677 
L 82.490182 289.07883 
L 86.818909 287.250262 
L 88.983273 286.625188 
L 94.394182 285.471467 
L 96.558545 284.690309 
L 98.722909 283.64091 
L 103.051636 281.188693 
L 105.216 279.872498 
L 106.298182 279.106544 
L 107.380364 278.197468 
L 108.462545 277.117161 
L 109.544727 275.612052 
L 111.709091 271.543877 
L 116.037818 262.970737 
L 118.202182 258.982424 
L 119.284364 256.314763 
L 121.448727 249.325344 
L 123.613091 240.291413 
L 125.777455 230.333563 
L 126.859636 224.257605 
L 127.941818 217.37326 
L 130.106182 205.540173 
L 131.188364 198.339959 
L 132.270545 189.315773 
L 134.434909 169.036815 
L 135.517091 161.410651 
L 136.599273 155.119928 
L 137.681455 150.835194 
L 138.763636 147.23192 
L 139.845818 144.862868 
L 140.928 145.819923 
L 142.010182 148.870427 
L 143.092364 153.607846 
L 145.256727 166.90998 
L 146.338909 174.144738 
L 148.503273 190.769685 
L 150.667636 205.859817 
L 151.749818 214.836175 
L 152.832 221.870447 
L 154.996364 233.708727 
L 156.078545 238.639959 
L 157.160727 242.188103 
L 158.242909 246.126739 
L 159.325091 249.564992 
L 161.489455 257.088829 
L 162.571636 260.225825 
L 163.653818 262.722373 
L 165.818182 266.496606 
L 167.982545 270.499413 
L 173.393455 277.014571 
L 175.557818 279.1018 
L 176.64 279.943416 
L 185.297455 284.912413 
L 187.461818 285.853912 
L 188.544 286.1818 
L 192.872727 287.056814 
L 198.283636 288.874964 
L 202.612364 289.908591 
L 212.352 291.56932 
L 215.598545 292.314266 
L 217.762909 292.550696 
L 219.927273 292.559903 
L 223.173818 292.447535 
L 226.420364 292.611375 
L 232.913455 293.227982 
L 235.077818 293.19704 
L 239.406545 292.855999 
L 241.570909 292.91343 
L 244.817455 293.322108 
L 248.064 293.681337 
L 252.392727 293.888763 
L 265.378909 294.357317 
L 271.872 294.324513 
L 277.282909 294.580655 
L 285.940364 295.12289 
L 291.351273 295.154695 
L 298.926545 295.117838 
L 305.419636 295.321504 
L 311.912727 295.488 
L 369.268364 295.378987 
L 385.501091 295.049186 
L 391.994182 295.134911 
L 398.487273 295.488 
L 398.487273 295.488 
" clip-path="url(#p659aa9e768)" style="fill: none; stroke: #0051c2; stroke-width: 1.5; stroke-linecap: square"/>
   </g>
   <g id="line2d_19">
    <path d="M 73.832727 295.488 
L 74.914909 294.52077 
L 75.997091 293.927847 
L 77.079273 294.143563 
L 79.243636 295.138716 
L 80.325818 295.182583 
L 81.408 294.773447 
L 82.490182 293.957653 
L 84.654545 291.938067 
L 85.736727 291.303281 
L 86.818909 290.953297 
L 87.901091 290.897539 
L 90.065455 291.020142 
L 93.312 290.710259 
L 98.722909 289.765968 
L 103.051636 288.80363 
L 105.216 288.580963 
L 107.380364 288.467638 
L 108.462545 288.298047 
L 109.544727 287.988603 
L 110.626909 287.518491 
L 112.791273 286.148222 
L 116.037818 284.024471 
L 118.202182 282.770485 
L 121.448727 281.125149 
L 122.530909 280.584353 
L 123.613091 279.905537 
L 124.695273 279.011289 
L 125.777455 277.807373 
L 127.941818 274.716478 
L 132.270545 268.310029 
L 133.352727 266.535894 
L 134.434909 264.076577 
L 135.517091 261.215609 
L 136.599273 257.98391 
L 138.763636 249.987067 
L 139.845818 245.662702 
L 142.010182 234.589742 
L 143.092364 229.336632 
L 144.174545 222.289874 
L 145.256727 214.035676 
L 146.338909 203.916989 
L 147.421091 195.052853 
L 148.503273 181.227731 
L 149.585455 170.36146 
L 150.667636 157.394295 
L 153.914182 126.640893 
L 154.996364 121.257029 
L 156.078545 119.24463 
L 157.160727 119.554516 
L 158.242909 123.391299 
L 159.325091 131.466632 
L 163.653818 174.362412 
L 165.818182 199.644196 
L 166.900364 210.375549 
L 169.064727 225.585108 
L 170.146909 232.63868 
L 171.229091 238.655327 
L 173.393455 248.10044 
L 174.475636 252.659786 
L 175.557818 256.365964 
L 178.804364 264.653453 
L 180.968727 269.01764 
L 182.050909 270.848614 
L 185.297455 275.21501 
L 186.379636 276.515496 
L 191.790545 282.020693 
L 193.954909 283.535066 
L 196.119273 284.711922 
L 198.283636 285.652966 
L 202.612364 287.177522 
L 209.105455 289.093752 
L 212.352 290.107526 
L 215.598545 290.747914 
L 222.091636 291.811345 
L 226.420364 292.261538 
L 231.831273 292.531378 
L 238.324364 292.863927 
L 244.817455 293.396721 
L 250.228364 293.850973 
L 254.557091 293.999799 
L 259.968 293.962326 
L 275.118545 293.602876 
L 280.529455 293.785049 
L 304.337455 294.891376 
L 316.241455 295.113697 
L 324.898909 295.046599 
L 338.967273 294.736569 
L 345.460364 294.900801 
L 360.610909 295.484883 
L 366.021818 295.415797 
L 372.514909 295.037839 
L 377.925818 294.770658 
L 383.336727 294.722946 
L 388.747636 294.906294 
L 398.487273 295.488 
L 398.487273 295.488 
" clip-path="url(#p659aa9e768)" style="fill: none; stroke: #0080b5; stroke-width: 1.5; stroke-linecap: square"/>
   </g>
   <g id="line2d_20">
    <path d="M 73.832727 295.488 
L 75.997091 294.068132 
L 77.079273 293.159021 
L 78.161455 291.954834 
L 79.243636 291.042975 
L 81.408 289.864697 
L 82.490182 289.505948 
L 83.572364 289.377416 
L 85.736727 289.435803 
L 87.901091 289.493141 
L 91.147636 289.250629 
L 94.394182 288.765077 
L 96.558545 288.36984 
L 98.722909 287.59297 
L 100.887273 286.743876 
L 103.051636 286.195436 
L 107.380364 285.40659 
L 109.544727 284.607614 
L 111.709091 283.473728 
L 114.955636 281.644641 
L 118.202182 280.265578 
L 120.366545 279.511275 
L 123.613091 277.629937 
L 125.777455 275.976056 
L 127.941818 274.219226 
L 131.188364 270.879802 
L 133.352727 268.319057 
L 135.517091 265.438155 
L 138.763636 260.743608 
L 140.928 257.004895 
L 143.092364 253.037185 
L 144.174545 250.559975 
L 147.421091 242.041901 
L 150.667636 234.841841 
L 151.749818 232.10206 
L 158.242909 212.881903 
L 159.325091 210.237028 
L 160.407273 208.015409 
L 161.489455 206.201599 
L 162.571636 204.837974 
L 163.653818 203.925116 
L 164.736 203.464641 
L 165.818182 203.440351 
L 166.900364 203.767613 
L 167.982545 204.516144 
L 169.064727 205.763547 
L 170.146909 207.423617 
L 171.229091 209.337341 
L 172.311273 211.638359 
L 174.475636 217.115724 
L 177.722182 226.611776 
L 179.886545 232.960844 
L 184.215273 242.748032 
L 188.544 253.261405 
L 190.708364 257.553921 
L 192.872727 261.187992 
L 195.037091 264.524197 
L 197.201455 267.448852 
L 199.365818 269.431294 
L 203.694545 273.775971 
L 209.105455 277.827028 
L 211.269818 279.197635 
L 215.598545 281.634693 
L 218.845091 282.922053 
L 229.666909 286.476904 
L 233.995636 287.844392 
L 237.242182 288.549235 
L 239.406545 288.833322 
L 245.899636 289.419624 
L 248.064 289.816432 
L 254.557091 291.27139 
L 256.721455 291.416549 
L 258.885818 291.316485 
L 263.214545 290.968865 
L 265.378909 291.039716 
L 267.543273 291.285802 
L 274.036364 292.229062 
L 279.447273 292.632771 
L 293.515636 293.472117 
L 305.419636 293.984471 
L 312.994909 293.994475 
L 340.049455 293.96774 
L 350.871273 294.256488 
L 358.446545 294.382836 
L 380.090182 294.544344 
L 389.829818 294.986004 
L 398.487273 295.488 
L 398.487273 295.488 
" clip-path="url(#p659aa9e768)" style="fill: none; stroke: #0095a8; stroke-width: 1.5; stroke-linecap: square"/>
   </g>
   <g id="line2d_21">
    <path d="M 73.832727 295.488 
L 78.161455 294.344235 
L 80.325818 293.991495 
L 84.654545 293.832055 
L 92.229818 293.653689 
L 97.640727 293.21016 
L 107.380364 292.018612 
L 119.284364 290.252983 
L 130.106182 288.113693 
L 134.434909 287.316623 
L 137.681455 286.529851 
L 143.092364 284.969452 
L 147.421091 283.301694 
L 149.585455 282.277796 
L 151.749818 281.083248 
L 154.996364 278.946449 
L 157.160727 277.288295 
L 159.325091 275.435951 
L 161.489455 273.330452 
L 162.571636 272.025489 
L 164.736 268.540996 
L 167.982545 262.984516 
L 171.229091 257.087009 
L 172.311273 254.929542 
L 173.393455 252.440522 
L 175.557818 246.350534 
L 177.722182 239.693541 
L 179.886545 229.408051 
L 182.050909 220.479207 
L 185.297455 203.582212 
L 186.379636 199.524499 
L 188.544 190.04048 
L 189.626182 186.080323 
L 190.708364 183.428031 
L 191.790545 181.256696 
L 192.872727 179.474538 
L 193.954909 178.953342 
L 195.037091 179.960027 
L 196.119273 181.397023 
L 197.201455 183.568489 
L 199.365818 190.640392 
L 202.612364 203.472755 
L 204.776727 214.192587 
L 209.105455 233.363741 
L 210.187636 237.37237 
L 214.516364 250.971447 
L 216.680727 256.382895 
L 218.845091 260.588707 
L 219.927273 262.884422 
L 223.173818 268.01391 
L 225.338182 270.886697 
L 226.420364 272.08645 
L 227.502545 273.071981 
L 228.584727 274.326332 
L 230.749091 276.161971 
L 233.995636 279.25002 
L 236.16 280.88 
L 237.242182 281.552973 
L 242.653091 283.949151 
L 245.899636 285.431693 
L 249.146182 286.850438 
L 251.310545 287.518975 
L 254.557091 288.204591 
L 277.282909 291.830177 
L 281.611636 292.296331 
L 288.104727 292.708238 
L 306.501818 293.726059 
L 317.323636 293.966191 
L 325.981091 293.955885 
L 333.556364 293.966169 
L 340.049455 294.227991 
L 349.789091 294.725989 
L 356.282182 294.786654 
L 367.104 294.764945 
L 383.336727 295.130472 
L 393.076364 295.149227 
L 398.487273 295.488 
L 398.487273 295.488 
" clip-path="url(#p659aa9e768)" style="fill: none; stroke: #00b080; stroke-width: 1.5; stroke-linecap: square"/>
   </g>
   <g id="line2d_22">
    <path d="M 73.832727 295.488 
L 78.161455 293.685923 
L 81.408 293.021933 
L 85.736727 292.326397 
L 88.983273 292.109057 
L 92.229818 292.181961 
L 101.969455 292.852277 
L 105.216 292.656154 
L 109.544727 292.064322 
L 113.873455 291.473438 
L 119.284364 290.987956 
L 149.585455 289.261192 
L 156.078545 288.130255 
L 163.653818 286.33213 
L 171.229091 284.24168 
L 174.475636 283.048542 
L 177.722182 281.74236 
L 182.050909 279.733034 
L 186.379636 277.620082 
L 188.544 276.145277 
L 192.872727 273.106644 
L 195.037091 271.872847 
L 196.119273 270.792593 
L 198.283636 268.928782 
L 201.530182 265.871195 
L 203.694545 263.412658 
L 205.858909 260.708816 
L 210.187636 254.711595 
L 213.434182 248.999763 
L 214.516364 246.878482 
L 219.927273 237.795779 
L 221.009455 236.079635 
L 223.173818 232.121483 
L 225.338182 228.873347 
L 226.420364 227.396507 
L 227.502545 226.115327 
L 228.584727 225.165046 
L 229.666909 224.425605 
L 230.749091 223.91643 
L 231.831273 223.563476 
L 232.913455 223.369655 
L 233.995636 223.341638 
L 235.077818 223.536361 
L 236.16 223.986121 
L 238.324364 225.375513 
L 239.406545 226.250615 
L 240.488727 227.275873 
L 241.570909 228.58413 
L 243.735273 231.990633 
L 248.064 238.975011 
L 252.392727 247.408616 
L 254.557091 250.761144 
L 255.639273 252.65375 
L 257.803636 255.406998 
L 262.132364 261.290314 
L 265.378909 264.950544 
L 268.625455 268.317788 
L 271.872 270.846049 
L 281.611636 277.758353 
L 284.858182 279.899762 
L 287.022545 281.103485 
L 290.269091 282.561088 
L 292.433455 283.25215 
L 306.501818 286.742625 
L 314.077091 288.515802 
L 319.488 289.484401 
L 322.734545 289.882645 
L 342.213818 291.313344 
L 358.446545 292.837473 
L 363.857455 293.01868 
L 370.350545 293.16631 
L 374.679273 293.501566 
L 383.336727 294.361871 
L 385.501091 294.443248 
L 390.912 294.393481 
L 394.158545 294.635078 
L 398.487273 295.112183 
L 398.487273 295.112183 
" clip-path="url(#p659aa9e768)" style="fill: none; stroke: #7eb537; stroke-width: 1.5; stroke-linecap: square"/>
   </g>
   <g id="line2d_23">
    <path d="M 73.832727 295.488 
L 77.079273 294.396498 
L 79.243636 293.965904 
L 81.408 293.866431 
L 90.065455 294.005412 
L 118.202182 293.865666 
L 130.106182 293.563631 
L 139.845818 293.433626 
L 144.174545 293.134219 
L 148.503273 292.571718 
L 154.996364 291.598614 
L 159.325091 291.205638 
L 162.571636 291.118636 
L 167.982545 291.049679 
L 171.229091 290.781056 
L 175.557818 290.138632 
L 182.050909 289.153415 
L 190.708364 287.88534 
L 195.037091 286.864565 
L 204.776727 284.095826 
L 208.023273 282.975828 
L 211.269818 281.625724 
L 214.516364 280.069541 
L 218.845091 277.681707 
L 222.091636 275.70431 
L 224.256 273.863526 
L 231.831273 266.846955 
L 237.242182 260.966627 
L 239.406545 257.416424 
L 245.899636 245.161807 
L 250.228364 236.889343 
L 256.721455 225.237976 
L 258.885818 221.64924 
L 259.968 220.105746 
L 262.132364 217.549601 
L 263.214545 216.474938 
L 264.296727 216.185504 
L 265.378909 216.220533 
L 266.461091 216.63219 
L 267.543273 217.343405 
L 268.625455 218.23412 
L 269.707636 219.278713 
L 270.789818 221.060474 
L 271.872 222.599126 
L 274.036364 226.526598 
L 277.282909 233.060131 
L 281.611636 241.686103 
L 282.693818 243.819204 
L 283.776 246.37132 
L 284.858182 248.609457 
L 287.022545 253.658458 
L 289.186909 257.880857 
L 291.351273 260.512857 
L 292.433455 261.924435 
L 294.597818 265.301019 
L 295.68 266.550125 
L 297.844364 268.618206 
L 300.008727 270.525944 
L 302.173091 271.960461 
L 305.419636 274.033805 
L 307.584 275.581397 
L 310.830545 277.748744 
L 314.077091 279.976012 
L 316.241455 281.180941 
L 318.405818 282.203428 
L 320.570182 282.933467 
L 325.981091 284.540603 
L 335.720727 287.559557 
L 342.213818 288.951247 
L 345.460364 289.412618 
L 348.706909 289.697209 
L 354.117818 289.851047 
L 357.364364 290.222814 
L 371.432727 292.368652 
L 379.008 293.304926 
L 387.665455 294.498647 
L 391.994182 294.684519 
L 396.322909 294.927143 
L 398.487273 295.112183 
L 398.487273 295.112183 
" clip-path="url(#p659aa9e768)" style="fill: none; stroke: #b7a900; stroke-width: 1.5; stroke-linecap: square"/>
   </g>
   <g id="line2d_24">
    <path d="M 73.832727 295.488 
L 74.914909 295.473861 
L 75.997091 295.303126 
L 77.079273 294.759725 
L 78.161455 294.006749 
L 79.243636 293.588714 
L 80.325818 293.54827 
L 85.736727 294.031634 
L 92.229818 293.99571 
L 108.462545 293.993887 
L 121.448727 293.956522 
L 135.517091 293.587602 
L 150.667636 293.142386 
L 167.982545 291.963079 
L 176.64 291.393154 
L 186.379636 290.531149 
L 190.708364 290.203974 
L 199.365818 289.746607 
L 201.530182 289.268245 
L 209.105455 287.275202 
L 211.269818 286.869849 
L 213.434182 286.638297 
L 215.598545 286.512934 
L 217.762909 286.106386 
L 219.927273 285.381815 
L 223.173818 283.836882 
L 232.913455 279.086151 
L 233.995636 278.48236 
L 235.077818 277.70941 
L 237.242182 276.424613 
L 240.488727 274.021951 
L 241.570909 273.150342 
L 246.981818 267.63224 
L 251.310545 262.271564 
L 255.639273 255.295223 
L 258.885818 248.810238 
L 259.968 246.265055 
L 262.132364 240.351255 
L 264.296727 234.456381 
L 271.872 215.542858 
L 272.954182 213.36889 
L 274.036364 211.524609 
L 275.118545 209.999056 
L 276.200727 208.81935 
L 277.282909 207.938154 
L 278.365091 207.319193 
L 279.447273 207.180089 
L 280.529455 207.490809 
L 281.611636 208.25645 
L 282.693818 209.749182 
L 284.858182 214.03109 
L 287.022545 219.411476 
L 288.104727 222.365072 
L 291.351273 232.045702 
L 293.515636 237.482687 
L 294.597818 239.51935 
L 295.68 241.84556 
L 297.844364 246.990565 
L 300.008727 250.764163 
L 302.173091 254.634643 
L 305.419636 259.798554 
L 307.584 262.833806 
L 310.830545 266.787726 
L 316.241455 273.251778 
L 320.570182 276.545363 
L 322.734545 278.023034 
L 327.063273 280.506988 
L 337.885091 285.063954 
L 340.049455 285.751416 
L 347.624727 287.400596 
L 349.789091 287.680603 
L 353.035636 287.878493 
L 357.364364 288.644028 
L 361.693091 289.551979 
L 367.104 290.338401 
L 371.432727 290.699532 
L 374.679273 290.7826 
L 375.761455 290.930166 
L 376.843636 291.277149 
L 380.090182 292.893141 
L 382.254545 293.300847 
L 388.747636 293.915034 
L 391.994182 293.974838 
L 395.240727 293.925532 
L 396.322909 294.002984 
L 397.405091 294.447851 
L 398.487273 295.112183 
L 398.487273 295.112183 
" clip-path="url(#p659aa9e768)" style="fill: none; stroke: #c49d00; stroke-width: 1.5; stroke-linecap: square"/>
   </g>
   <g id="line2d_25">
    <path d="M 73.832727 295.488 
L 77.079273 295.488 
L 78.161455 294.900596 
L 79.243636 293.522743 
L 80.325818 293.112788 
L 81.408 293.106667 
L 85.736727 293.704361 
L 91.147636 293.952654 
L 97.640727 294.042044 
L 104.133818 293.888807 
L 114.955636 293.571738 
L 144.174545 293.497965 
L 165.818182 292.693732 
L 175.557818 291.710598 
L 182.050909 291.279793 
L 191.790545 290.829731 
L 195.037091 290.442871 
L 198.283636 289.774359 
L 204.776727 288.298487 
L 209.105455 287.588067 
L 222.091636 285.722085 
L 225.338182 284.992297 
L 231.831273 283.167312 
L 235.077818 282.172278 
L 239.406545 280.549074 
L 253.474909 274.764405 
L 255.639273 273.315297 
L 262.132364 268.18332 
L 265.378909 265.325538 
L 270.789818 260.314282 
L 272.954182 257.876957 
L 275.118545 255.467429 
L 279.447273 249.495771 
L 281.611636 246.861218 
L 284.858182 243.654857 
L 287.022545 242.188613 
L 291.351273 239.619712 
L 296.762182 236.485909 
L 298.926545 235.256992 
L 302.173091 233.728852 
L 303.255273 233.652443 
L 304.337455 234.146928 
L 305.419636 234.985604 
L 310.830545 239.926411 
L 317.323636 246.769055 
L 318.405818 248.184693 
L 320.570182 250.502369 
L 323.816727 254.354776 
L 324.898909 255.522412 
L 325.981091 256.874143 
L 331.392 262.627052 
L 333.556364 265.083432 
L 337.885091 269.123059 
L 340.049455 270.6486 
L 343.296 272.609545 
L 346.542545 274.318911 
L 353.035636 277.332838 
L 356.282182 278.910386 
L 362.775273 282.321682 
L 364.939636 283.153398 
L 368.186182 284.037829 
L 370.350545 284.410433 
L 374.679273 285.031942 
L 375.761455 285.318421 
L 376.843636 285.842698 
L 380.090182 287.784822 
L 382.254545 288.908559 
L 387.665455 291.916384 
L 389.829818 292.551495 
L 393.076364 293.191363 
L 396.322909 294.219465 
L 398.487273 295.112183 
L 398.487273 295.112183 
" clip-path="url(#p659aa9e768)" style="fill: none; stroke: #c38b00; stroke-width: 1.5; stroke-linecap: square"/>
   </g>
   <g id="line2d_26">
    <path d="M 73.832727 295.488 
L 77.079273 295.392063 
L 79.243636 294.719613 
L 83.572364 294.421253 
L 87.901091 294.348486 
L 105.216 294.241251 
L 113.873455 293.983338 
L 119.284364 294.090742 
L 127.941818 294.367681 
L 132.270545 294.279857 
L 137.681455 293.90121 
L 144.174545 293.505162 
L 152.832 293.257772 
L 169.064727 292.858373 
L 175.557818 292.92869 
L 180.968727 292.964351 
L 185.297455 292.759182 
L 189.626182 292.321216 
L 197.201455 291.433451 
L 202.612364 291.043194 
L 208.023273 290.763212 
L 216.680727 289.799805 
L 224.256 288.83002 
L 225.338182 288.714101 
L 227.502545 288.266995 
L 233.995636 287.176044 
L 241.570909 285.542905 
L 249.146182 283.897444 
L 254.557091 282.776065 
L 257.803636 281.727687 
L 261.050182 280.387185 
L 265.378909 278.349834 
L 275.118545 272.446862 
L 279.447273 269.325468 
L 285.940364 264.081898 
L 288.104727 262.464911 
L 291.351273 260.127022 
L 292.433455 258.911953 
L 293.515636 257.436169 
L 296.762182 252.184622 
L 297.844364 250.772837 
L 300.008727 248.245209 
L 301.090909 246.617602 
L 303.255273 242.894879 
L 305.419636 239.691546 
L 306.501818 238.225011 
L 307.584 236.995246 
L 310.830545 233.886865 
L 312.994909 232.270384 
L 315.159273 231.126641 
L 318.405818 229.63297 
L 319.488 229.349569 
L 320.570182 229.376884 
L 321.652364 229.592948 
L 322.734545 229.974301 
L 324.898909 231.103286 
L 325.981091 232.001353 
L 329.227636 235.394611 
L 331.392 237.670528 
L 335.720727 242.96242 
L 342.213818 251.46277 
L 347.624727 257.200908 
L 354.117818 263.419271 
L 358.446545 268.091678 
L 360.610909 270.226813 
L 363.857455 272.944153 
L 367.104 275.098216 
L 369.268364 276.179636 
L 370.350545 276.64313 
L 373.597091 277.533542 
L 374.679273 278.10504 
L 376.843636 279.68893 
L 377.925818 280.659845 
L 381.172364 283.979164 
L 384.418909 287.10422 
L 386.583273 289.227257 
L 387.665455 289.941074 
L 389.829818 290.981413 
L 393.076364 292.47176 
L 396.322909 293.933002 
L 398.487273 294.736366 
L 398.487273 294.736366 
" clip-path="url(#p659aa9e768)" style="fill: none; stroke: #c17600; stroke-width: 1.5; stroke-linecap: square"/>
   </g>
   <g id="line2d_27">
    <path d="M 73.832727 295.488 
L 75.997091 295.421974 
L 78.161455 294.706216 
L 81.408 294.406151 
L 85.736727 294.332137 
L 109.544727 294.218981 
L 135.517091 293.607294 
L 144.174545 293.575524 
L 177.722182 292.670187 
L 199.365818 291.513109 
L 218.845091 290.355395 
L 226.420364 289.886651 
L 231.831273 289.767633 
L 238.324364 289.662858 
L 241.570909 289.418826 
L 244.817455 288.95891 
L 252.392727 287.664548 
L 255.639273 287.327574 
L 259.968 287.115753 
L 264.296727 286.487303 
L 268.625455 285.606505 
L 282.693818 282.300587 
L 293.515636 279.202562 
L 294.597818 278.817445 
L 297.844364 276.721373 
L 298.926545 275.719369 
L 302.173091 273.623266 
L 316.241455 263.378228 
L 318.405818 260.667242 
L 321.652364 256.207116 
L 323.816727 253.61271 
L 329.227636 246.550377 
L 332.474182 242.195914 
L 334.638545 239.495781 
L 336.802909 236.209549 
L 340.049455 231.498902 
L 343.296 226.477332 
L 345.460364 223.329278 
L 347.624727 220.928537 
L 348.706909 219.940931 
L 349.789091 219.304632 
L 350.871273 218.978717 
L 353.035636 218.750297 
L 354.117818 219.073947 
L 355.2 219.93367 
L 359.528727 225.12085 
L 361.693091 228.462734 
L 367.104 236.943722 
L 368.186182 238.319053 
L 372.514909 243.076457 
L 373.597091 244.772901 
L 374.679273 246.976265 
L 376.843636 252.273187 
L 380.090182 260.743887 
L 382.254545 266.792827 
L 384.418909 272.987021 
L 385.501091 275.655184 
L 386.583273 277.992627 
L 387.665455 279.910285 
L 390.912 284.691409 
L 393.076364 287.677081 
L 394.158545 288.857199 
L 396.322909 290.598401 
L 398.487273 292.105647 
L 398.487273 292.105647 
" clip-path="url(#p659aa9e768)" style="fill: none; stroke: #b06636; stroke-width: 1.5; stroke-linecap: square"/>
   </g>
   <g id="line2d_28">
    <path d="M 73.832727 295.488 
L 75.997091 295.488 
L 77.079273 294.919312 
L 78.161455 294.064144 
L 79.243636 293.845823 
L 81.408 293.871148 
L 86.818909 294.211036 
L 91.147636 294.36078 
L 95.476364 294.276484 
L 113.873455 293.551578 
L 118.202182 293.720894 
L 123.613091 293.984637 
L 127.941818 293.905104 
L 146.338909 293.217457 
L 154.996364 293.225648 
L 165.818182 293.259377 
L 171.229091 292.96154 
L 177.722182 292.518977 
L 182.050909 292.450039 
L 188.544 292.521009 
L 195.037091 292.158966 
L 218.845091 290.195253 
L 225.338182 290.070388 
L 233.995636 289.899605 
L 238.324364 289.592219 
L 243.735273 288.963296 
L 263.214545 286.29477 
L 280.529455 282.85462 
L 289.186909 280.68858 
L 291.351273 280.318798 
L 294.597818 279.824598 
L 296.762182 279.258118 
L 300.008727 278.065738 
L 304.337455 276.20107 
L 308.666182 274.201689 
L 314.077091 272.028819 
L 316.241455 270.878762 
L 318.405818 269.527245 
L 330.309818 261.112065 
L 333.556364 258.535795 
L 340.049455 252.985457 
L 342.213818 250.526724 
L 345.460364 246.532141 
L 349.789091 241.112598 
L 351.953455 238.163491 
L 353.035636 236.997581 
L 354.117818 236.056463 
L 359.528727 232.240878 
L 364.939636 227.827698 
L 366.021818 227.131993 
L 367.104 226.232579 
L 368.186182 225.532571 
L 369.268364 224.537861 
L 371.432727 222.27914 
L 372.514909 221.481304 
L 373.597091 221.110898 
L 374.679273 221.17238 
L 375.761455 221.850051 
L 376.843636 223.246958 
L 377.925818 225.333586 
L 379.008 228.098722 
L 381.172364 235.061794 
L 384.418909 248.260994 
L 385.501091 253.43883 
L 388.747636 265.502444 
L 389.829818 268.987705 
L 391.994182 274.246527 
L 394.158545 278.951669 
L 395.240727 281.447746 
L 396.322909 283.660793 
L 397.405091 285.418073 
L 398.487273 286.468393 
L 398.487273 286.468393 
" clip-path="url(#p659aa9e768)" style="fill: none; stroke: #a96a3e; stroke-width: 1.5; stroke-linecap: square"/>
   </g>
   <g id="patch_3">
    <path d="M 57.6 307.584 
L 57.6 41.472 
" style="fill: none; stroke: #000000; stroke-width: 0.8; stroke-linejoin: miter; stroke-linecap: square"/>
   </g>
   <g id="patch_4">
    <path d="M 414.72 307.584 
L 414.72 41.472 
" style="fill: none; stroke: #000000; stroke-width: 0.8; stroke-linejoin: miter; stroke-linecap: square"/>
   </g>
   <g id="patch_5">
    <path d="M 57.6 307.584 
L 414.72 307.584 
" style="fill: none; stroke: #000000; stroke-width: 0.8; stroke-linejoin: miter; stroke-linecap: square"/>
   </g>
   <g id="patch_6">
    <path d="M 57.6 41.472 
L 414.72 41.472 
" style="fill: none; stroke: #000000; stroke-width: 0.8; stroke-linejoin: miter; stroke-linecap: square"/>
   </g>
   <g id="text_14">
    <!-- SPECTRICITY S1 -->
    <g transform="translate(188.325938 35.472) scale(0.12 -0.12)">
     <defs>
      <path id="DejaVuSans-53" d="M 3425 4513 
L 3425 3897 
Q 3066 4069 2747 4153 
Q 2428 4238 2131 4238 
Q 1616 4238 1336 4038 
Q 1056 3838 1056 3469 
Q 1056 3159 1242 3001 
Q 1428 2844 1947 2747 
L 2328 2669 
Q 3034 2534 3370 2195 
Q 3706 1856 3706 1288 
Q 3706 609 3251 259 
Q 2797 -91 1919 -91 
Q 1588 -91 1214 -16 
Q 841 59 441 206 
L 441 856 
Q 825 641 1194 531 
Q 1563 422 1919 422 
Q 2459 422 2753 634 
Q 3047 847 3047 1241 
Q 3047 1584 2836 1778 
Q 2625 1972 2144 2069 
L 1759 2144 
Q 1053 2284 737 2584 
Q 422 2884 422 3419 
Q 422 4038 858 4394 
Q 1294 4750 2059 4750 
Q 2388 4750 2728 4690 
Q 3069 4631 3425 4513 
z
" transform="scale(0.015625)"/>
      <path id="DejaVuSans-50" d="M 1259 4147 
L 1259 2394 
L 2053 2394 
Q 2494 2394 2734 2622 
Q 2975 2850 2975 3272 
Q 2975 3691 2734 3919 
Q 2494 4147 2053 4147 
L 1259 4147 
z
M 628 4666 
L 2053 4666 
Q 2838 4666 3239 4311 
Q 3641 3956 3641 3272 
Q 3641 2581 3239 2228 
Q 2838 1875 2053 1875 
L 1259 1875 
L 1259 0 
L 628 0 
L 628 4666 
z
" transform="scale(0.015625)"/>
      <path id="DejaVuSans-45" d="M 628 4666 
L 3578 4666 
L 3578 4134 
L 1259 4134 
L 1259 2753 
L 3481 2753 
L 3481 2222 
L 1259 2222 
L 1259 531 
L 3634 531 
L 3634 0 
L 628 0 
L 628 4666 
z
" transform="scale(0.015625)"/>
      <path id="DejaVuSans-43" d="M 4122 4306 
L 4122 3641 
Q 3803 3938 3442 4084 
Q 3081 4231 2675 4231 
Q 1875 4231 1450 3742 
Q 1025 3253 1025 2328 
Q 1025 1406 1450 917 
Q 1875 428 2675 428 
Q 3081 428 3442 575 
Q 3803 722 4122 1019 
L 4122 359 
Q 3791 134 3420 21 
Q 3050 -91 2638 -91 
Q 1578 -91 968 557 
Q 359 1206 359 2328 
Q 359 3453 968 4101 
Q 1578 4750 2638 4750 
Q 3056 4750 3426 4639 
Q 3797 4528 4122 4306 
z
" transform="scale(0.015625)"/>
      <path id="DejaVuSans-54" d="M -19 4666 
L 3928 4666 
L 3928 4134 
L 2272 4134 
L 2272 0 
L 1638 0 
L 1638 4134 
L -19 4134 
L -19 4666 
z
" transform="scale(0.015625)"/>
      <path id="DejaVuSans-52" d="M 2841 2188 
Q 3044 2119 3236 1894 
Q 3428 1669 3622 1275 
L 4263 0 
L 3584 0 
L 2988 1197 
Q 2756 1666 2539 1819 
Q 2322 1972 1947 1972 
L 1259 1972 
L 1259 0 
L 628 0 
L 628 4666 
L 2053 4666 
Q 2853 4666 3247 4331 
Q 3641 3997 3641 3322 
Q 3641 2881 3436 2590 
Q 3231 2300 2841 2188 
z
M 1259 4147 
L 1259 2491 
L 2053 2491 
Q 2509 2491 2742 2702 
Q 2975 2913 2975 3322 
Q 2975 3731 2742 3939 
Q 2509 4147 2053 4147 
L 1259 4147 
z
" transform="scale(0.015625)"/>
      <path id="DejaVuSans-49" d="M 628 4666 
L 1259 4666 
L 1259 0 
L 628 0 
L 628 4666 
z
" transform="scale(0.015625)"/>
      <path id="DejaVuSans-59" d="M -13 4666 
L 666 4666 
L 1959 2747 
L 3244 4666 
L 3922 4666 
L 2272 2222 
L 2272 0 
L 1638 0 
L 1638 2222 
L -13 4666 
z
" transform="scale(0.015625)"/>
      <path id="DejaVuSans-20" transform="scale(0.015625)"/>
     </defs>
     <use xlink:href="#DejaVuSans-53"/>
     <use xlink:href="#DejaVuSans-50" transform="translate(63.476562 0)"/>
     <use xlink:href="#DejaVuSans-45" transform="translate(123.779297 0)"/>
     <use xlink:href="#DejaVuSans-43" transform="translate(186.962891 0)"/>
     <use xlink:href="#DejaVuSans-54" transform="translate(256.787109 0)"/>
     <use xlink:href="#DejaVuSans-52" transform="translate(317.871094 0)"/>
     <use xlink:href="#DejaVuSans-49" transform="translate(387.353516 0)"/>
     <use xlink:href="#DejaVuSans-43" transform="translate(416.845703 0)"/>
     <use xlink:href="#DejaVuSans-49" transform="translate(486.669922 0)"/>
     <use xlink:href="#DejaVuSans-54" transform="translate(516.162109 0)"/>
     <use xlink:href="#DejaVuSans-59" transform="translate(577.246094 0)"/>
     <use xlink:href="#DejaVuSans-20" transform="translate(638.330078 0)"/>
     <use xlink:href="#DejaVuSans-53" transform="translate(670.117188 0)"/>
     <use xlink:href="#DejaVuSans-31" transform="translate(733.59375 0)"/>
    </g>
   </g>
  </g>
 </g>
 <defs>
  <clipPath id="p659aa9e768">
   <rect x="57.6" y="41.472" width="357.12" height="266.112"/>
  </clipPath>
 </defs>
</svg>
