<?xml version="1.0" encoding="utf-8" standalone="no"?>
<!DOCTYPE svg PUBLIC "-//W3C//DTD SVG 1.1//EN"
  "http://www.w3.org/Graphics/SVG/1.1/DTD/svg11.dtd">
<svg xmlns:xlink="http://www.w3.org/1999/xlink" width="460.8pt" height="345.6pt" viewBox="0 0 460.8 345.6" xmlns="http://www.w3.org/2000/svg" version="1.1">
 <metadata>
  <rdf:RDF xmlns:dc="http://purl.org/dc/elements/1.1/" xmlns:cc="http://creativecommons.org/ns#" xmlns:rdf="http://www.w3.org/1999/02/22-rdf-syntax-ns#">
   <cc:Work>
    <dc:type rdf:resource="http://purl.org/dc/dcmitype/StillImage"/>
    <dc:date>2025-09-03T15:19:23.491912</dc:date>
    <dc:format>image/svg+xml</dc:format>
    <dc:creator>
     <cc:Agent>
      <dc:title>Matplotlib v3.10.1, https://matplotlib.org/</dc:title>
     </cc:Agent>
    </dc:creator>
   </cc:Work>
  </rdf:RDF>
 </metadata>
 <defs>
  <style type="text/css">*{stroke-linejoin: round; stroke-linecap: butt}</style>
 </defs>
 <g id="figure_1">
  <g id="patch_1">
   <path d="M 0 345.6 
L 460.8 345.6 
L 460.8 0 
L 0 0 
z
" style="fill: #ffffff"/>
  </g>
  <g id="axes_1">
   <g id="patch_2">
    <path d="M 57.6 307.584 
L 414.72 307.584 
L 414.72 41.472 
L 57.6 41.472 
z
" style="fill: #ffffff"/>
   </g>
   <g id="matplotlib.axis_1">
    <g id="xtick_1">
     <g id="line2d_1">
      <defs>
       <path id="m232dbab178" d="M 0 0 
L 0 3.5 
" style="stroke: #000000; stroke-width: 0.8"/>
      </defs>
      <g>
       <use xlink:href="#m232dbab178" x="91.147636" y="307.584" style="stroke: #000000; stroke-width: 0.8"/>
      </g>
     </g>
     <g id="text_1">
      <!-- 400 -->
      <g transform="translate(81.603886 322.182437) scale(0.1 -0.1)">
       <defs>
        <path id="DejaVuSans-34" d="M 2419 4116 
L 825 1625 
L 2419 1625 
L 2419 4116 
z
M 2253 4666 
L 3047 4666 
L 3047 1625 
L 3713 1625 
L 3713 1100 
L 3047 1100 
L 3047 0 
L 2419 0 
L 2419 1100 
L 313 1100 
L 313 1709 
L 2253 4666 
z
" transform="scale(0.015625)"/>
        <path id="DejaVuSans-30" d="M 2034 4250 
Q 1547 4250 1301 3770 
Q 1056 3291 1056 2328 
Q 1056 1369 1301 889 
Q 1547 409 2034 409 
Q 2525 409 2770 889 
Q 3016 1369 3016 2328 
Q 3016 3291 2770 3770 
Q 2525 4250 2034 4250 
z
M 2034 4750 
Q 2819 4750 3233 4129 
Q 3647 3509 3647 2328 
Q 3647 1150 3233 529 
Q 2819 -91 2034 -91 
Q 1250 -91 836 529 
Q 422 1150 422 2328 
Q 422 3509 836 4129 
Q 1250 4750 2034 4750 
z
" transform="scale(0.015625)"/>
       </defs>
       <use xlink:href="#DejaVuSans-34"/>
       <use xlink:href="#DejaVuSans-30" transform="translate(63.623047 0)"/>
       <use xlink:href="#DejaVuSans-30" transform="translate(127.246094 0)"/>
      </g>
     </g>
    </g>
    <g id="xtick_2">
     <g id="line2d_2">
      <g>
       <use xlink:href="#m232dbab178" x="134.434909" y="307.584" style="stroke: #000000; stroke-width: 0.8"/>
      </g>
     </g>
     <g id="text_2">
      <!-- 450 -->
      <g transform="translate(124.891159 322.182437) scale(0.1 -0.1)">
       <defs>
        <path id="DejaVuSans-35" d="M 691 4666 
L 3169 4666 
L 3169 4134 
L 1269 4134 
L 1269 2991 
Q 1406 3038 1543 3061 
Q 1681 3084 1819 3084 
Q 2600 3084 3056 2656 
Q 3513 2228 3513 1497 
Q 3513 744 3044 326 
Q 2575 -91 1722 -91 
Q 1428 -91 1123 -41 
Q 819 9 494 109 
L 494 744 
Q 775 591 1075 516 
Q 1375 441 1709 441 
Q 2250 441 2565 725 
Q 2881 1009 2881 1497 
Q 2881 1984 2565 2268 
Q 2250 2553 1709 2553 
Q 1456 2553 1204 2497 
Q 953 2441 691 2322 
L 691 4666 
z
" transform="scale(0.015625)"/>
       </defs>
       <use xlink:href="#DejaVuSans-34"/>
       <use xlink:href="#DejaVuSans-35" transform="translate(63.623047 0)"/>
       <use xlink:href="#DejaVuSans-30" transform="translate(127.246094 0)"/>
      </g>
     </g>
    </g>
    <g id="xtick_3">
     <g id="line2d_3">
      <g>
       <use xlink:href="#m232dbab178" x="177.722182" y="307.584" style="stroke: #000000; stroke-width: 0.8"/>
      </g>
     </g>
     <g id="text_3">
      <!-- 500 -->
      <g transform="translate(168.178432 322.182437) scale(0.1 -0.1)">
       <use xlink:href="#DejaVuSans-35"/>
       <use xlink:href="#DejaVuSans-30" transform="translate(63.623047 0)"/>
       <use xlink:href="#DejaVuSans-30" transform="translate(127.246094 0)"/>
      </g>
     </g>
    </g>
    <g id="xtick_4">
     <g id="line2d_4">
      <g>
       <use xlink:href="#m232dbab178" x="221.009455" y="307.584" style="stroke: #000000; stroke-width: 0.8"/>
      </g>
     </g>
     <g id="text_4">
      <!-- 550 -->
      <g transform="translate(211.465705 322.182437) scale(0.1 -0.1)">
       <use xlink:href="#DejaVuSans-35"/>
       <use xlink:href="#DejaVuSans-35" transform="translate(63.623047 0)"/>
       <use xlink:href="#DejaVuSans-30" transform="translate(127.246094 0)"/>
      </g>
     </g>
    </g>
    <g id="xtick_5">
     <g id="line2d_5">
      <g>
       <use xlink:href="#m232dbab178" x="264.296727" y="307.584" style="stroke: #000000; stroke-width: 0.8"/>
      </g>
     </g>
     <g id="text_5">
      <!-- 600 -->
      <g transform="translate(254.752977 322.182437) scale(0.1 -0.1)">
       <defs>
        <path id="DejaVuSans-36" d="M 2113 2584 
Q 1688 2584 1439 2293 
Q 1191 2003 1191 1497 
Q 1191 994 1439 701 
Q 1688 409 2113 409 
Q 2538 409 2786 701 
Q 3034 994 3034 1497 
Q 3034 2003 2786 2293 
Q 2538 2584 2113 2584 
z
M 3366 4563 
L 3366 3988 
Q 3128 4100 2886 4159 
Q 2644 4219 2406 4219 
Q 1781 4219 1451 3797 
Q 1122 3375 1075 2522 
Q 1259 2794 1537 2939 
Q 1816 3084 2150 3084 
Q 2853 3084 3261 2657 
Q 3669 2231 3669 1497 
Q 3669 778 3244 343 
Q 2819 -91 2113 -91 
Q 1303 -91 875 529 
Q 447 1150 447 2328 
Q 447 3434 972 4092 
Q 1497 4750 2381 4750 
Q 2619 4750 2861 4703 
Q 3103 4656 3366 4563 
z
" transform="scale(0.015625)"/>
       </defs>
       <use xlink:href="#DejaVuSans-36"/>
       <use xlink:href="#DejaVuSans-30" transform="translate(63.623047 0)"/>
       <use xlink:href="#DejaVuSans-30" transform="translate(127.246094 0)"/>
      </g>
     </g>
    </g>
    <g id="xtick_6">
     <g id="line2d_6">
      <g>
       <use xlink:href="#m232dbab178" x="307.584" y="307.584" style="stroke: #000000; stroke-width: 0.8"/>
      </g>
     </g>
     <g id="text_6">
      <!-- 650 -->
      <g transform="translate(298.04025 322.182437) scale(0.1 -0.1)">
       <use xlink:href="#DejaVuSans-36"/>
       <use xlink:href="#DejaVuSans-35" transform="translate(63.623047 0)"/>
       <use xlink:href="#DejaVuSans-30" transform="translate(127.246094 0)"/>
      </g>
     </g>
    </g>
    <g id="xtick_7">
     <g id="line2d_7">
      <g>
       <use xlink:href="#m232dbab178" x="350.871273" y="307.584" style="stroke: #000000; stroke-width: 0.8"/>
      </g>
     </g>
     <g id="text_7">
      <!-- 700 -->
      <g transform="translate(341.327523 322.182437) scale(0.1 -0.1)">
       <defs>
        <path id="DejaVuSans-37" d="M 525 4666 
L 3525 4666 
L 3525 4397 
L 1831 0 
L 1172 0 
L 2766 4134 
L 525 4134 
L 525 4666 
z
" transform="scale(0.015625)"/>
       </defs>
       <use xlink:href="#DejaVuSans-37"/>
       <use xlink:href="#DejaVuSans-30" transform="translate(63.623047 0)"/>
       <use xlink:href="#DejaVuSans-30" transform="translate(127.246094 0)"/>
      </g>
     </g>
    </g>
    <g id="xtick_8">
     <g id="line2d_8">
      <g>
       <use xlink:href="#m232dbab178" x="394.158545" y="307.584" style="stroke: #000000; stroke-width: 0.8"/>
      </g>
     </g>
     <g id="text_8">
      <!-- 750 -->
      <g transform="translate(384.614795 322.182437) scale(0.1 -0.1)">
       <use xlink:href="#DejaVuSans-37"/>
       <use xlink:href="#DejaVuSans-35" transform="translate(63.623047 0)"/>
       <use xlink:href="#DejaVuSans-30" transform="translate(127.246094 0)"/>
      </g>
     </g>
    </g>
   </g>
   <g id="matplotlib.axis_2">
    <g id="ytick_1">
     <g id="line2d_9">
      <defs>
       <path id="m5d9e6d392d" d="M 0 0 
L -3.5 0 
" style="stroke: #000000; stroke-width: 0.8"/>
      </defs>
      <g>
       <use xlink:href="#m5d9e6d392d" x="57.6" y="295.488" style="stroke: #000000; stroke-width: 0.8"/>
      </g>
     </g>
     <g id="text_9">
      <!-- 0.0 -->
      <g transform="translate(34.696875 299.287219) scale(0.1 -0.1)">
       <defs>
        <path id="DejaVuSans-2e" d="M 684 794 
L 1344 794 
L 1344 0 
L 684 0 
L 684 794 
z
" transform="scale(0.015625)"/>
       </defs>
       <use xlink:href="#DejaVuSans-30"/>
       <use xlink:href="#DejaVuSans-2e" transform="translate(63.623047 0)"/>
       <use xlink:href="#DejaVuSans-30" transform="translate(95.410156 0)"/>
      </g>
     </g>
    </g>
    <g id="ytick_2">
     <g id="line2d_10">
      <g>
       <use xlink:href="#m5d9e6d392d" x="57.6" y="247.55881" style="stroke: #000000; stroke-width: 0.8"/>
      </g>
     </g>
     <g id="text_10">
      <!-- 0.2 -->
      <g transform="translate(34.696875 251.358028) scale(0.1 -0.1)">
       <defs>
        <path id="DejaVuSans-32" d="M 1228 531 
L 3431 531 
L 3431 0 
L 469 0 
L 469 531 
Q 828 903 1448 1529 
Q 2069 2156 2228 2338 
Q 2531 2678 2651 2914 
Q 2772 3150 2772 3378 
Q 2772 3750 2511 3984 
Q 2250 4219 1831 4219 
Q 1534 4219 1204 4116 
Q 875 4013 500 3803 
L 500 4441 
Q 881 4594 1212 4672 
Q 1544 4750 1819 4750 
Q 2544 4750 2975 4387 
Q 3406 4025 3406 3419 
Q 3406 3131 3298 2873 
Q 3191 2616 2906 2266 
Q 2828 2175 2409 1742 
Q 1991 1309 1228 531 
z
" transform="scale(0.015625)"/>
       </defs>
       <use xlink:href="#DejaVuSans-30"/>
       <use xlink:href="#DejaVuSans-2e" transform="translate(63.623047 0)"/>
       <use xlink:href="#DejaVuSans-32" transform="translate(95.410156 0)"/>
      </g>
     </g>
    </g>
    <g id="ytick_3">
     <g id="line2d_11">
      <g>
       <use xlink:href="#m5d9e6d392d" x="57.6" y="199.629619" style="stroke: #000000; stroke-width: 0.8"/>
      </g>
     </g>
     <g id="text_11">
      <!-- 0.4 -->
      <g transform="translate(34.696875 203.428838) scale(0.1 -0.1)">
       <use xlink:href="#DejaVuSans-30"/>
       <use xlink:href="#DejaVuSans-2e" transform="translate(63.623047 0)"/>
       <use xlink:href="#DejaVuSans-34" transform="translate(95.410156 0)"/>
      </g>
     </g>
    </g>
    <g id="ytick_4">
     <g id="line2d_12">
      <g>
       <use xlink:href="#m5d9e6d392d" x="57.6" y="151.700429" style="stroke: #000000; stroke-width: 0.8"/>
      </g>
     </g>
     <g id="text_12">
      <!-- 0.6 -->
      <g transform="translate(34.696875 155.499648) scale(0.1 -0.1)">
       <use xlink:href="#DejaVuSans-30"/>
       <use xlink:href="#DejaVuSans-2e" transform="translate(63.623047 0)"/>
       <use xlink:href="#DejaVuSans-36" transform="translate(95.410156 0)"/>
      </g>
     </g>
    </g>
    <g id="ytick_5">
     <g id="line2d_13">
      <g>
       <use xlink:href="#m5d9e6d392d" x="57.6" y="103.771238" style="stroke: #000000; stroke-width: 0.8"/>
      </g>
     </g>
     <g id="text_13">
      <!-- 0.8 -->
      <g transform="translate(34.696875 107.570457) scale(0.1 -0.1)">
       <defs>
        <path id="DejaVuSans-38" d="M 2034 2216 
Q 1584 2216 1326 1975 
Q 1069 1734 1069 1313 
Q 1069 891 1326 650 
Q 1584 409 2034 409 
Q 2484 409 2743 651 
Q 3003 894 3003 1313 
Q 3003 1734 2745 1975 
Q 2488 2216 2034 2216 
z
M 1403 2484 
Q 997 2584 770 2862 
Q 544 3141 544 3541 
Q 544 4100 942 4425 
Q 1341 4750 2034 4750 
Q 2731 4750 3128 4425 
Q 3525 4100 3525 3541 
Q 3525 3141 3298 2862 
Q 3072 2584 2669 2484 
Q 3125 2378 3379 2068 
Q 3634 1759 3634 1313 
Q 3634 634 3220 271 
Q 2806 -91 2034 -91 
Q 1263 -91 848 271 
Q 434 634 434 1313 
Q 434 1759 690 2068 
Q 947 2378 1403 2484 
z
M 1172 3481 
Q 1172 3119 1398 2916 
Q 1625 2713 2034 2713 
Q 2441 2713 2670 2916 
Q 2900 3119 2900 3481 
Q 2900 3844 2670 4047 
Q 2441 4250 2034 4250 
Q 1625 4250 1398 4047 
Q 1172 3844 1172 3481 
z
" transform="scale(0.015625)"/>
       </defs>
       <use xlink:href="#DejaVuSans-30"/>
       <use xlink:href="#DejaVuSans-2e" transform="translate(63.623047 0)"/>
       <use xlink:href="#DejaVuSans-38" transform="translate(95.410156 0)"/>
      </g>
     </g>
    </g>
    <g id="ytick_6">
     <g id="line2d_14">
      <g>
       <use xlink:href="#m5d9e6d392d" x="57.6" y="55.842048" style="stroke: #000000; stroke-width: 0.8"/>
      </g>
     </g>
     <g id="text_14">
      <!-- 1.0 -->
      <g transform="translate(34.696875 59.641267) scale(0.1 -0.1)">
       <defs>
        <path id="DejaVuSans-31" d="M 794 531 
L 1825 531 
L 1825 4091 
L 703 3866 
L 703 4441 
L 1819 4666 
L 2450 4666 
L 2450 531 
L 3481 531 
L 3481 0 
L 794 0 
L 794 531 
z
" transform="scale(0.015625)"/>
       </defs>
       <use xlink:href="#DejaVuSans-31"/>
       <use xlink:href="#DejaVuSans-2e" transform="translate(63.623047 0)"/>
       <use xlink:href="#DejaVuSans-30" transform="translate(95.410156 0)"/>
      </g>
     </g>
    </g>
   </g>
   <g id="line2d_15">
    <path d="M 73.832727 289.391616 
L 78.161455 291.883392 
L 82.490182 294.350976 
L 86.818909 294.617088 
L 91.147636 294.8832 
L 95.476364 294.859008 
L 99.805091 294.834816 
L 104.133818 293.213952 
L 108.462545 291.61728 
L 112.791273 287.770752 
L 117.12 284.311296 
L 121.448727 284.456448 
L 125.777455 284.625792 
L 130.106182 285.641856 
L 134.434909 286.512768 
L 138.763636 286.633728 
L 143.092364 286.561152 
L 147.421091 285.738624 
L 151.749818 284.940288 
L 156.078545 284.190336 
L 160.407273 283.658112 
L 164.736 284.093568 
L 169.064727 284.504832 
L 173.393455 283.948416 
L 177.722182 283.392 
L 182.050909 282.230784 
L 186.379636 281.069568 
L 190.708364 276.642432 
L 195.037091 272.553984 
L 199.365818 268.949376 
L 203.694545 265.320576 
L 208.023273 271.029888 
L 212.352 275.989248 
L 216.680727 279.811584 
L 221.009455 282.956544 
L 225.338182 283.488768 
L 229.666909 284.045184 
L 233.995636 281.553408 
L 238.324364 278.31168 
L 242.653091 241.78176 
L 246.981818 200.631168 
L 251.310545 152.561664 
L 255.639273 114.144768 
L 259.968 114.362496 
L 264.296727 114.580224 
L 268.625455 125.321472 
L 272.954182 143.054208 
L 277.282909 152.972928 
L 281.611636 161.415936 
L 285.940364 171.86688 
L 290.269091 181.567872 
L 294.597818 188.341632 
L 298.926545 195.0912 
L 303.255273 207.114624 
L 307.584 219.138048 
L 311.912727 229.20192 
L 316.241455 238.781952 
L 320.570182 249.958656 
L 324.898909 261.111168 
L 329.227636 272.26368 
L 333.556364 281.432448 
L 337.885091 287.673984 
L 342.213818 292.875264 
L 346.542545 293.963904 
L 350.871273 294.834816 
L 355.2 294.955776 
L 359.528727 295.052544 
L 363.857455 295.149312 
L 368.186182 295.221888 
L 372.514909 295.270272 
L 376.843636 295.294464 
L 381.172364 295.294464 
L 385.501091 295.294464 
L 389.829818 295.270272 
L 394.158545 295.270272 
L 398.487273 295.24608 
" clip-path="url(#p6feeb4d487)" style="fill: none; stroke: #ff0000; stroke-width: 1.5; stroke-linecap: square"/>
   </g>
   <g id="line2d_16">
    <path d="M 73.832727 283.658112 
L 78.161455 288.2304 
L 82.490182 292.802688 
L 86.818909 293.334912 
L 91.147636 293.891328 
L 95.476364 294.423552 
L 99.805091 294.931584 
L 104.133818 292.802688 
L 108.462545 290.6496 
L 112.791273 283.319424 
L 117.12 275.40864 
L 121.448727 270.376704 
L 125.777455 265.36896 
L 130.106182 262.925568 
L 134.434909 259.901568 
L 138.763636 254.48256 
L 143.092364 247.418496 
L 147.421091 233.750016 
L 151.749818 220.541184 
L 156.078545 209.291904 
L 160.407273 199.276416 
L 164.736 194.268672 
L 169.064727 189.28512 
L 173.393455 170.8992 
L 177.722182 152.537472 
L 182.050909 137.0304 
L 186.379636 121.523328 
L 190.708364 96.895872 
L 195.037091 77.808384 
L 199.365818 66.970368 
L 203.694545 56.156544 
L 208.023273 55.842048 
L 212.352 59.180544 
L 216.680727 68.059008 
L 221.009455 76.06656 
L 225.338182 80.735616 
L 229.666909 85.38048 
L 233.995636 107.612928 
L 238.324364 134.224128 
L 242.653091 152.174592 
L 246.981818 170.05248 
L 251.310545 187.881984 
L 255.639273 205.517952 
L 259.968 222.379776 
L 264.296727 239.217408 
L 268.625455 254.3616 
L 272.954182 268.344576 
L 277.282909 275.118336 
L 281.611636 279.618048 
L 285.940364 282.327552 
L 290.269091 284.698368 
L 294.597818 285.69024 
L 298.926545 286.682112 
L 303.255273 287.915904 
L 307.584 289.149696 
L 311.912727 289.80288 
L 316.241455 290.335104 
L 320.570182 290.89152 
L 324.898909 291.641472 
L 329.227636 292.681728 
L 333.556364 293.601024 
L 337.885091 294.350976 
L 342.213818 295.00416 
L 346.542545 295.173504 
L 350.871273 295.318656 
L 355.2 295.318656 
L 359.528727 295.342848 
L 363.857455 295.391232 
L 368.186182 295.415424 
L 372.514909 295.415424 
L 376.843636 295.415424 
L 381.172364 295.415424 
L 385.501091 295.415424 
L 389.829818 295.415424 
L 394.158545 295.391232 
L 398.487273 295.415424 
" clip-path="url(#p6feeb4d487)" style="fill: none; stroke: #008000; stroke-width: 1.5; stroke-linecap: square"/>
   </g>
   <g id="line2d_17">
    <path d="M 73.832727 295.488 
L 78.161455 295.488 
L 82.490182 295.488 
L 86.818909 295.488 
L 91.147636 294.955776 
L 95.476364 294.713856 
L 99.805091 294.471936 
L 104.133818 276.303744 
L 108.462545 258.159744 
L 112.791273 201.913344 
L 117.12 144.094464 
L 121.448727 118.16064 
L 125.777455 92.202624 
L 130.106182 85.936896 
L 134.434909 80.372736 
L 138.763636 77.663232 
L 143.092364 73.066752 
L 147.421091 60.849792 
L 151.749818 53.568 
L 156.078545 65.978496 
L 160.407273 79.21152 
L 164.736 95.855616 
L 169.064727 112.499712 
L 173.393455 133.498368 
L 177.722182 154.497024 
L 182.050909 171.576576 
L 186.379636 188.631936 
L 190.708364 207.55008 
L 195.037091 224.460288 
L 199.365818 238.346496 
L 203.694545 252.256896 
L 208.023273 259.853184 
L 212.352 266.433408 
L 216.680727 271.513728 
L 221.009455 276.303744 
L 225.338182 279.980928 
L 229.666909 283.658112 
L 233.995636 286.65792 
L 238.324364 289.488384 
L 242.653091 290.383488 
L 246.981818 291.157632 
L 251.310545 291.73824 
L 255.639273 292.294656 
L 259.968 292.754304 
L 264.296727 293.213952 
L 268.625455 293.601024 
L 272.954182 293.939712 
L 277.282909 294.060672 
L 281.611636 294.084864 
L 285.940364 294.012288 
L 290.269091 293.939712 
L 294.597818 293.818752 
L 298.926545 293.6736 
L 303.255273 293.43168 
L 307.584 293.165568 
L 311.912727 293.044608 
L 316.241455 292.923648 
L 320.570182 293.165568 
L 324.898909 293.55264 
L 329.227636 294.133248 
L 333.556364 294.64128 
L 337.885091 295.00416 
L 342.213818 295.318656 
L 346.542545 295.391232 
L 350.871273 295.439616 
L 355.2 295.439616 
L 359.528727 295.439616 
L 363.857455 295.439616 
L 368.186182 295.439616 
L 372.514909 295.439616 
L 376.843636 295.439616 
L 381.172364 295.439616 
L 385.501091 295.439616 
L 389.829818 295.439616 
L 394.158545 295.439616 
L 398.487273 295.439616 
" clip-path="url(#p6feeb4d487)" style="fill: none; stroke: #0000ff; stroke-width: 1.5; stroke-linecap: square"/>
   </g>
   <g id="patch_3">
    <path d="M 57.6 307.584 
L 57.6 41.472 
" style="fill: none; stroke: #000000; stroke-width: 0.8; stroke-linejoin: miter; stroke-linecap: square"/>
   </g>
   <g id="patch_4">
    <path d="M 414.72 307.584 
L 414.72 41.472 
" style="fill: none; stroke: #000000; stroke-width: 0.8; stroke-linejoin: miter; stroke-linecap: square"/>
   </g>
   <g id="patch_5">
    <path d="M 57.6 307.584 
L 414.72 307.584 
" style="fill: none; stroke: #000000; stroke-width: 0.8; stroke-linejoin: miter; stroke-linecap: square"/>
   </g>
   <g id="patch_6">
    <path d="M 57.6 41.472 
L 414.72 41.472 
" style="fill: none; stroke: #000000; stroke-width: 0.8; stroke-linejoin: miter; stroke-linecap: square"/>
   </g>
   <g id="text_15">
    <!-- PANASONIC DC-G110 -->
    <g transform="translate(172.04625 35.472) scale(0.12 -0.12)">
     <defs>
      <path id="DejaVuSans-50" d="M 1259 4147 
L 1259 2394 
L 2053 2394 
Q 2494 2394 2734 2622 
Q 2975 2850 2975 3272 
Q 2975 3691 2734 3919 
Q 2494 4147 2053 4147 
L 1259 4147 
z
M 628 4666 
L 2053 4666 
Q 2838 4666 3239 4311 
Q 3641 3956 3641 3272 
Q 3641 2581 3239 2228 
Q 2838 1875 2053 1875 
L 1259 1875 
L 1259 0 
L 628 0 
L 628 4666 
z
" transform="scale(0.015625)"/>
      <path id="DejaVuSans-41" d="M 2188 4044 
L 1331 1722 
L 3047 1722 
L 2188 4044 
z
M 1831 4666 
L 2547 4666 
L 4325 0 
L 3669 0 
L 3244 1197 
L 1141 1197 
L 716 0 
L 50 0 
L 1831 4666 
z
" transform="scale(0.015625)"/>
      <path id="DejaVuSans-4e" d="M 628 4666 
L 1478 4666 
L 3547 763 
L 3547 4666 
L 4159 4666 
L 4159 0 
L 3309 0 
L 1241 3903 
L 1241 0 
L 628 0 
L 628 4666 
z
" transform="scale(0.015625)"/>
      <path id="DejaVuSans-53" d="M 3425 4513 
L 3425 3897 
Q 3066 4069 2747 4153 
Q 2428 4238 2131 4238 
Q 1616 4238 1336 4038 
Q 1056 3838 1056 3469 
Q 1056 3159 1242 3001 
Q 1428 2844 1947 2747 
L 2328 2669 
Q 3034 2534 3370 2195 
Q 3706 1856 3706 1288 
Q 3706 609 3251 259 
Q 2797 -91 1919 -91 
Q 1588 -91 1214 -16 
Q 841 59 441 206 
L 441 856 
Q 825 641 1194 531 
Q 1563 422 1919 422 
Q 2459 422 2753 634 
Q 3047 847 3047 1241 
Q 3047 1584 2836 1778 
Q 2625 1972 2144 2069 
L 1759 2144 
Q 1053 2284 737 2584 
Q 422 2884 422 3419 
Q 422 4038 858 4394 
Q 1294 4750 2059 4750 
Q 2388 4750 2728 4690 
Q 3069 4631 3425 4513 
z
" transform="scale(0.015625)"/>
      <path id="DejaVuSans-4f" d="M 2522 4238 
Q 1834 4238 1429 3725 
Q 1025 3213 1025 2328 
Q 1025 1447 1429 934 
Q 1834 422 2522 422 
Q 3209 422 3611 934 
Q 4013 1447 4013 2328 
Q 4013 3213 3611 3725 
Q 3209 4238 2522 4238 
z
M 2522 4750 
Q 3503 4750 4090 4092 
Q 4678 3434 4678 2328 
Q 4678 1225 4090 567 
Q 3503 -91 2522 -91 
Q 1538 -91 948 565 
Q 359 1222 359 2328 
Q 359 3434 948 4092 
Q 1538 4750 2522 4750 
z
" transform="scale(0.015625)"/>
      <path id="DejaVuSans-49" d="M 628 4666 
L 1259 4666 
L 1259 0 
L 628 0 
L 628 4666 
z
" transform="scale(0.015625)"/>
      <path id="DejaVuSans-43" d="M 4122 4306 
L 4122 3641 
Q 3803 3938 3442 4084 
Q 3081 4231 2675 4231 
Q 1875 4231 1450 3742 
Q 1025 3253 1025 2328 
Q 1025 1406 1450 917 
Q 1875 428 2675 428 
Q 3081 428 3442 575 
Q 3803 722 4122 1019 
L 4122 359 
Q 3791 134 3420 21 
Q 3050 -91 2638 -91 
Q 1578 -91 968 557 
Q 359 1206 359 2328 
Q 359 3453 968 4101 
Q 1578 4750 2638 4750 
Q 3056 4750 3426 4639 
Q 3797 4528 4122 4306 
z
" transform="scale(0.015625)"/>
      <path id="DejaVuSans-20" transform="scale(0.015625)"/>
      <path id="DejaVuSans-44" d="M 1259 4147 
L 1259 519 
L 2022 519 
Q 2988 519 3436 956 
Q 3884 1394 3884 2338 
Q 3884 3275 3436 3711 
Q 2988 4147 2022 4147 
L 1259 4147 
z
M 628 4666 
L 1925 4666 
Q 3281 4666 3915 4102 
Q 4550 3538 4550 2338 
Q 4550 1131 3912 565 
Q 3275 0 1925 0 
L 628 0 
L 628 4666 
z
" transform="scale(0.015625)"/>
      <path id="DejaVuSans-2d" d="M 313 2009 
L 1997 2009 
L 1997 1497 
L 313 1497 
L 313 2009 
z
" transform="scale(0.015625)"/>
      <path id="DejaVuSans-47" d="M 3809 666 
L 3809 1919 
L 2778 1919 
L 2778 2438 
L 4434 2438 
L 4434 434 
Q 4069 175 3628 42 
Q 3188 -91 2688 -91 
Q 1594 -91 976 548 
Q 359 1188 359 2328 
Q 359 3472 976 4111 
Q 1594 4750 2688 4750 
Q 3144 4750 3555 4637 
Q 3966 4525 4313 4306 
L 4313 3634 
Q 3963 3931 3569 4081 
Q 3175 4231 2741 4231 
Q 1884 4231 1454 3753 
Q 1025 3275 1025 2328 
Q 1025 1384 1454 906 
Q 1884 428 2741 428 
Q 3075 428 3337 486 
Q 3600 544 3809 666 
z
" transform="scale(0.015625)"/>
     </defs>
     <use xlink:href="#DejaVuSans-50"/>
     <use xlink:href="#DejaVuSans-41" transform="translate(53.927734 0)"/>
     <use xlink:href="#DejaVuSans-4e" transform="translate(122.335938 0)"/>
     <use xlink:href="#DejaVuSans-41" transform="translate(197.140625 0)"/>
     <use xlink:href="#DejaVuSans-53" transform="translate(265.548828 0)"/>
     <use xlink:href="#DejaVuSans-4f" transform="translate(329.025391 0)"/>
     <use xlink:href="#DejaVuSans-4e" transform="translate(407.736328 0)"/>
     <use xlink:href="#DejaVuSans-49" transform="translate(482.541016 0)"/>
     <use xlink:href="#DejaVuSans-43" transform="translate(512.033203 0)"/>
     <use xlink:href="#DejaVuSans-20" transform="translate(581.857422 0)"/>
     <use xlink:href="#DejaVuSans-44" transform="translate(613.644531 0)"/>
     <use xlink:href="#DejaVuSans-43" transform="translate(690.646484 0)"/>
     <use xlink:href="#DejaVuSans-2d" transform="translate(760.470703 0)"/>
     <use xlink:href="#DejaVuSans-47" transform="translate(800.179688 0)"/>
     <use xlink:href="#DejaVuSans-31" transform="translate(877.669922 0)"/>
     <use xlink:href="#DejaVuSans-31" transform="translate(941.292969 0)"/>
     <use xlink:href="#DejaVuSans-30" transform="translate(1004.916016 0)"/>
    </g>
   </g>
  </g>
 </g>
 <defs>
  <clipPath id="p6feeb4d487">
   <rect x="57.6" y="41.472" width="357.12" height="266.112"/>
  </clipPath>
 </defs>
</svg>
