<?xml version="1.0" encoding="utf-8" standalone="no"?>
<!DOCTYPE svg PUBLIC "-//W3C//DTD SVG 1.1//EN"
  "http://www.w3.org/Graphics/SVG/1.1/DTD/svg11.dtd">
<svg xmlns:xlink="http://www.w3.org/1999/xlink" width="460.8pt" height="345.6pt" viewBox="0 0 460.8 345.6" xmlns="http://www.w3.org/2000/svg" version="1.1">
 <metadata>
  <rdf:RDF xmlns:dc="http://purl.org/dc/elements/1.1/" xmlns:cc="http://creativecommons.org/ns#" xmlns:rdf="http://www.w3.org/1999/02/22-rdf-syntax-ns#">
   <cc:Work>
    <dc:type rdf:resource="http://purl.org/dc/dcmitype/StillImage"/>
    <dc:date>2025-09-03T15:19:25.766962</dc:date>
    <dc:format>image/svg+xml</dc:format>
    <dc:creator>
     <cc:Agent>
      <dc:title>Matplotlib v3.10.1, https://matplotlib.org/</dc:title>
     </cc:Agent>
    </dc:creator>
   </cc:Work>
  </rdf:RDF>
 </metadata>
 <defs>
  <style type="text/css">*{stroke-linejoin: round; stroke-linecap: butt}</style>
 </defs>
 <g id="figure_1">
  <g id="patch_1">
   <path d="M 0 345.6 
L 460.8 345.6 
L 460.8 0 
L 0 0 
z
" style="fill: #ffffff"/>
  </g>
  <g id="axes_1">
   <g id="patch_2">
    <path d="M 57.6 307.584 
L 414.72 307.584 
L 414.72 41.472 
L 57.6 41.472 
z
" style="fill: #ffffff"/>
   </g>
   <g id="matplotlib.axis_1">
    <g id="xtick_1">
     <g id="line2d_1">
      <defs>
       <path id="m37d4046b05" d="M 0 0 
L 0 3.5 
" style="stroke: #000000; stroke-width: 0.8"/>
      </defs>
      <g>
       <use xlink:href="#m37d4046b05" x="83.596774" y="307.584" style="stroke: #000000; stroke-width: 0.8"/>
      </g>
     </g>
     <g id="text_1">
      <!-- 400 -->
      <g transform="translate(74.053024 322.182437) scale(0.1 -0.1)">
       <defs>
        <path id="DejaVuSans-34" d="M 2419 4116 
L 825 1625 
L 2419 1625 
L 2419 4116 
z
M 2253 4666 
L 3047 4666 
L 3047 1625 
L 3713 1625 
L 3713 1100 
L 3047 1100 
L 3047 0 
L 2419 0 
L 2419 1100 
L 313 1100 
L 313 1709 
L 2253 4666 
z
" transform="scale(0.015625)"/>
        <path id="DejaVuSans-30" d="M 2034 4250 
Q 1547 4250 1301 3770 
Q 1056 3291 1056 2328 
Q 1056 1369 1301 889 
Q 1547 409 2034 409 
Q 2525 409 2770 889 
Q 3016 1369 3016 2328 
Q 3016 3291 2770 3770 
Q 2525 4250 2034 4250 
z
M 2034 4750 
Q 2819 4750 3233 4129 
Q 3647 3509 3647 2328 
Q 3647 1150 3233 529 
Q 2819 -91 2034 -91 
Q 1250 -91 836 529 
Q 422 1150 422 2328 
Q 422 3509 836 4129 
Q 1250 4750 2034 4750 
z
" transform="scale(0.015625)"/>
       </defs>
       <use xlink:href="#DejaVuSans-34"/>
       <use xlink:href="#DejaVuSans-30" transform="translate(63.623047 0)"/>
       <use xlink:href="#DejaVuSans-30" transform="translate(127.246094 0)"/>
      </g>
     </g>
    </g>
    <g id="xtick_2">
     <g id="line2d_2">
      <g>
       <use xlink:href="#m37d4046b05" x="132.417006" y="307.584" style="stroke: #000000; stroke-width: 0.8"/>
      </g>
     </g>
     <g id="text_2">
      <!-- 500 -->
      <g transform="translate(122.873256 322.182437) scale(0.1 -0.1)">
       <defs>
        <path id="DejaVuSans-35" d="M 691 4666 
L 3169 4666 
L 3169 4134 
L 1269 4134 
L 1269 2991 
Q 1406 3038 1543 3061 
Q 1681 3084 1819 3084 
Q 2600 3084 3056 2656 
Q 3513 2228 3513 1497 
Q 3513 744 3044 326 
Q 2575 -91 1722 -91 
Q 1428 -91 1123 -41 
Q 819 9 494 109 
L 494 744 
Q 775 591 1075 516 
Q 1375 441 1709 441 
Q 2250 441 2565 725 
Q 2881 1009 2881 1497 
Q 2881 1984 2565 2268 
Q 2250 2553 1709 2553 
Q 1456 2553 1204 2497 
Q 953 2441 691 2322 
L 691 4666 
z
" transform="scale(0.015625)"/>
       </defs>
       <use xlink:href="#DejaVuSans-35"/>
       <use xlink:href="#DejaVuSans-30" transform="translate(63.623047 0)"/>
       <use xlink:href="#DejaVuSans-30" transform="translate(127.246094 0)"/>
      </g>
     </g>
    </g>
    <g id="xtick_3">
     <g id="line2d_3">
      <g>
       <use xlink:href="#m37d4046b05" x="181.237239" y="307.584" style="stroke: #000000; stroke-width: 0.8"/>
      </g>
     </g>
     <g id="text_3">
      <!-- 600 -->
      <g transform="translate(171.693489 322.182437) scale(0.1 -0.1)">
       <defs>
        <path id="DejaVuSans-36" d="M 2113 2584 
Q 1688 2584 1439 2293 
Q 1191 2003 1191 1497 
Q 1191 994 1439 701 
Q 1688 409 2113 409 
Q 2538 409 2786 701 
Q 3034 994 3034 1497 
Q 3034 2003 2786 2293 
Q 2538 2584 2113 2584 
z
M 3366 4563 
L 3366 3988 
Q 3128 4100 2886 4159 
Q 2644 4219 2406 4219 
Q 1781 4219 1451 3797 
Q 1122 3375 1075 2522 
Q 1259 2794 1537 2939 
Q 1816 3084 2150 3084 
Q 2853 3084 3261 2657 
Q 3669 2231 3669 1497 
Q 3669 778 3244 343 
Q 2819 -91 2113 -91 
Q 1303 -91 875 529 
Q 447 1150 447 2328 
Q 447 3434 972 4092 
Q 1497 4750 2381 4750 
Q 2619 4750 2861 4703 
Q 3103 4656 3366 4563 
z
" transform="scale(0.015625)"/>
       </defs>
       <use xlink:href="#DejaVuSans-36"/>
       <use xlink:href="#DejaVuSans-30" transform="translate(63.623047 0)"/>
       <use xlink:href="#DejaVuSans-30" transform="translate(127.246094 0)"/>
      </g>
     </g>
    </g>
    <g id="xtick_4">
     <g id="line2d_4">
      <g>
       <use xlink:href="#m37d4046b05" x="230.057471" y="307.584" style="stroke: #000000; stroke-width: 0.8"/>
      </g>
     </g>
     <g id="text_4">
      <!-- 700 -->
      <g transform="translate(220.513721 322.182437) scale(0.1 -0.1)">
       <defs>
        <path id="DejaVuSans-37" d="M 525 4666 
L 3525 4666 
L 3525 4397 
L 1831 0 
L 1172 0 
L 2766 4134 
L 525 4134 
L 525 4666 
z
" transform="scale(0.015625)"/>
       </defs>
       <use xlink:href="#DejaVuSans-37"/>
       <use xlink:href="#DejaVuSans-30" transform="translate(63.623047 0)"/>
       <use xlink:href="#DejaVuSans-30" transform="translate(127.246094 0)"/>
      </g>
     </g>
    </g>
    <g id="xtick_5">
     <g id="line2d_5">
      <g>
       <use xlink:href="#m37d4046b05" x="278.877703" y="307.584" style="stroke: #000000; stroke-width: 0.8"/>
      </g>
     </g>
     <g id="text_5">
      <!-- 800 -->
      <g transform="translate(269.333953 322.182437) scale(0.1 -0.1)">
       <defs>
        <path id="DejaVuSans-38" d="M 2034 2216 
Q 1584 2216 1326 1975 
Q 1069 1734 1069 1313 
Q 1069 891 1326 650 
Q 1584 409 2034 409 
Q 2484 409 2743 651 
Q 3003 894 3003 1313 
Q 3003 1734 2745 1975 
Q 2488 2216 2034 2216 
z
M 1403 2484 
Q 997 2584 770 2862 
Q 544 3141 544 3541 
Q 544 4100 942 4425 
Q 1341 4750 2034 4750 
Q 2731 4750 3128 4425 
Q 3525 4100 3525 3541 
Q 3525 3141 3298 2862 
Q 3072 2584 2669 2484 
Q 3125 2378 3379 2068 
Q 3634 1759 3634 1313 
Q 3634 634 3220 271 
Q 2806 -91 2034 -91 
Q 1263 -91 848 271 
Q 434 634 434 1313 
Q 434 1759 690 2068 
Q 947 2378 1403 2484 
z
M 1172 3481 
Q 1172 3119 1398 2916 
Q 1625 2713 2034 2713 
Q 2441 2713 2670 2916 
Q 2900 3119 2900 3481 
Q 2900 3844 2670 4047 
Q 2441 4250 2034 4250 
Q 1625 4250 1398 4047 
Q 1172 3844 1172 3481 
z
" transform="scale(0.015625)"/>
       </defs>
       <use xlink:href="#DejaVuSans-38"/>
       <use xlink:href="#DejaVuSans-30" transform="translate(63.623047 0)"/>
       <use xlink:href="#DejaVuSans-30" transform="translate(127.246094 0)"/>
      </g>
     </g>
    </g>
    <g id="xtick_6">
     <g id="line2d_6">
      <g>
       <use xlink:href="#m37d4046b05" x="327.697936" y="307.584" style="stroke: #000000; stroke-width: 0.8"/>
      </g>
     </g>
     <g id="text_6">
      <!-- 900 -->
      <g transform="translate(318.154186 322.182437) scale(0.1 -0.1)">
       <defs>
        <path id="DejaVuSans-39" d="M 703 97 
L 703 672 
Q 941 559 1184 500 
Q 1428 441 1663 441 
Q 2288 441 2617 861 
Q 2947 1281 2994 2138 
Q 2813 1869 2534 1725 
Q 2256 1581 1919 1581 
Q 1219 1581 811 2004 
Q 403 2428 403 3163 
Q 403 3881 828 4315 
Q 1253 4750 1959 4750 
Q 2769 4750 3195 4129 
Q 3622 3509 3622 2328 
Q 3622 1225 3098 567 
Q 2575 -91 1691 -91 
Q 1453 -91 1209 -44 
Q 966 3 703 97 
z
M 1959 2075 
Q 2384 2075 2632 2365 
Q 2881 2656 2881 3163 
Q 2881 3666 2632 3958 
Q 2384 4250 1959 4250 
Q 1534 4250 1286 3958 
Q 1038 3666 1038 3163 
Q 1038 2656 1286 2365 
Q 1534 2075 1959 2075 
z
" transform="scale(0.015625)"/>
       </defs>
       <use xlink:href="#DejaVuSans-39"/>
       <use xlink:href="#DejaVuSans-30" transform="translate(63.623047 0)"/>
       <use xlink:href="#DejaVuSans-30" transform="translate(127.246094 0)"/>
      </g>
     </g>
    </g>
    <g id="xtick_7">
     <g id="line2d_7">
      <g>
       <use xlink:href="#m37d4046b05" x="376.518168" y="307.584" style="stroke: #000000; stroke-width: 0.8"/>
      </g>
     </g>
     <g id="text_7">
      <!-- 1000 -->
      <g transform="translate(363.793168 322.182437) scale(0.1 -0.1)">
       <defs>
        <path id="DejaVuSans-31" d="M 794 531 
L 1825 531 
L 1825 4091 
L 703 3866 
L 703 4441 
L 1819 4666 
L 2450 4666 
L 2450 531 
L 3481 531 
L 3481 0 
L 794 0 
L 794 531 
z
" transform="scale(0.015625)"/>
       </defs>
       <use xlink:href="#DejaVuSans-31"/>
       <use xlink:href="#DejaVuSans-30" transform="translate(63.623047 0)"/>
       <use xlink:href="#DejaVuSans-30" transform="translate(127.246094 0)"/>
       <use xlink:href="#DejaVuSans-30" transform="translate(190.869141 0)"/>
      </g>
     </g>
    </g>
   </g>
   <g id="matplotlib.axis_2">
    <g id="ytick_1">
     <g id="line2d_8">
      <defs>
       <path id="m5ffce20d25" d="M 0 0 
L -3.5 0 
" style="stroke: #000000; stroke-width: 0.8"/>
      </defs>
      <g>
       <use xlink:href="#m5ffce20d25" x="57.6" y="295.488" style="stroke: #000000; stroke-width: 0.8"/>
      </g>
     </g>
     <g id="text_8">
      <!-- 0.0 -->
      <g transform="translate(34.696875 299.287219) scale(0.1 -0.1)">
       <defs>
        <path id="DejaVuSans-2e" d="M 684 794 
L 1344 794 
L 1344 0 
L 684 0 
L 684 794 
z
" transform="scale(0.015625)"/>
       </defs>
       <use xlink:href="#DejaVuSans-30"/>
       <use xlink:href="#DejaVuSans-2e" transform="translate(63.623047 0)"/>
       <use xlink:href="#DejaVuSans-30" transform="translate(95.410156 0)"/>
      </g>
     </g>
    </g>
    <g id="ytick_2">
     <g id="line2d_9">
      <g>
       <use xlink:href="#m5ffce20d25" x="57.6" y="247.104" style="stroke: #000000; stroke-width: 0.8"/>
      </g>
     </g>
     <g id="text_9">
      <!-- 0.2 -->
      <g transform="translate(34.696875 250.903219) scale(0.1 -0.1)">
       <defs>
        <path id="DejaVuSans-32" d="M 1228 531 
L 3431 531 
L 3431 0 
L 469 0 
L 469 531 
Q 828 903 1448 1529 
Q 2069 2156 2228 2338 
Q 2531 2678 2651 2914 
Q 2772 3150 2772 3378 
Q 2772 3750 2511 3984 
Q 2250 4219 1831 4219 
Q 1534 4219 1204 4116 
Q 875 4013 500 3803 
L 500 4441 
Q 881 4594 1212 4672 
Q 1544 4750 1819 4750 
Q 2544 4750 2975 4387 
Q 3406 4025 3406 3419 
Q 3406 3131 3298 2873 
Q 3191 2616 2906 2266 
Q 2828 2175 2409 1742 
Q 1991 1309 1228 531 
z
" transform="scale(0.015625)"/>
       </defs>
       <use xlink:href="#DejaVuSans-30"/>
       <use xlink:href="#DejaVuSans-2e" transform="translate(63.623047 0)"/>
       <use xlink:href="#DejaVuSans-32" transform="translate(95.410156 0)"/>
      </g>
     </g>
    </g>
    <g id="ytick_3">
     <g id="line2d_10">
      <g>
       <use xlink:href="#m5ffce20d25" x="57.6" y="198.72" style="stroke: #000000; stroke-width: 0.8"/>
      </g>
     </g>
     <g id="text_10">
      <!-- 0.4 -->
      <g transform="translate(34.696875 202.519219) scale(0.1 -0.1)">
       <use xlink:href="#DejaVuSans-30"/>
       <use xlink:href="#DejaVuSans-2e" transform="translate(63.623047 0)"/>
       <use xlink:href="#DejaVuSans-34" transform="translate(95.410156 0)"/>
      </g>
     </g>
    </g>
    <g id="ytick_4">
     <g id="line2d_11">
      <g>
       <use xlink:href="#m5ffce20d25" x="57.6" y="150.336" style="stroke: #000000; stroke-width: 0.8"/>
      </g>
     </g>
     <g id="text_11">
      <!-- 0.6 -->
      <g transform="translate(34.696875 154.135219) scale(0.1 -0.1)">
       <use xlink:href="#DejaVuSans-30"/>
       <use xlink:href="#DejaVuSans-2e" transform="translate(63.623047 0)"/>
       <use xlink:href="#DejaVuSans-36" transform="translate(95.410156 0)"/>
      </g>
     </g>
    </g>
    <g id="ytick_5">
     <g id="line2d_12">
      <g>
       <use xlink:href="#m5ffce20d25" x="57.6" y="101.952" style="stroke: #000000; stroke-width: 0.8"/>
      </g>
     </g>
     <g id="text_12">
      <!-- 0.8 -->
      <g transform="translate(34.696875 105.751219) scale(0.1 -0.1)">
       <use xlink:href="#DejaVuSans-30"/>
       <use xlink:href="#DejaVuSans-2e" transform="translate(63.623047 0)"/>
       <use xlink:href="#DejaVuSans-38" transform="translate(95.410156 0)"/>
      </g>
     </g>
    </g>
    <g id="ytick_6">
     <g id="line2d_13">
      <g>
       <use xlink:href="#m5ffce20d25" x="57.6" y="53.568" style="stroke: #000000; stroke-width: 0.8"/>
      </g>
     </g>
     <g id="text_13">
      <!-- 1.0 -->
      <g transform="translate(34.696875 57.367219) scale(0.1 -0.1)">
       <use xlink:href="#DejaVuSans-31"/>
       <use xlink:href="#DejaVuSans-2e" transform="translate(63.623047 0)"/>
       <use xlink:href="#DejaVuSans-30" transform="translate(95.410156 0)"/>
      </g>
     </g>
    </g>
   </g>
   <g id="line2d_14">
    <path d="M 73.832727 295.488 
L 78.714751 231.717888 
L 81.155762 206.727552 
L 83.596774 192.139776 
L 86.037785 175.568256 
L 88.478797 157.71456 
L 90.919809 149.150592 
L 93.36082 142.909056 
L 95.801832 132.67584 
L 98.242843 124.184448 
L 100.683855 122.684544 
L 103.124867 119.394432 
L 108.00689 98.371584 
L 110.447902 91.355904 
L 112.888913 85.549824 
L 117.770936 83.420928 
L 120.211948 75.510144 
L 122.65296 65.881728 
L 125.093971 68.688 
L 127.534983 71.010432 
L 132.417006 71.83296 
L 134.858018 65.712384 
L 137.299029 60.486912 
L 139.740041 58.841856 
L 142.181053 57.366144 
L 147.063076 54.971136 
L 149.504087 54.076032 
L 151.945099 53.568 
L 154.386111 54.487296 
L 156.827122 56.446848 
L 161.709146 63.462528 
L 164.150157 58.64832 
L 166.591169 56.567808 
L 171.473192 74.179584 
L 176.355215 87.170688 
L 178.796227 81.679104 
L 181.237239 77.832576 
L 186.119262 83.396736 
L 188.560273 88.16256 
L 191.001285 94.21056 
L 195.883308 92.710656 
L 198.32432 95.05728 
L 200.765332 98.008704 
L 205.647355 102.508416 
L 208.088366 108.411264 
L 210.529378 113.733504 
L 212.97039 113.225472 
L 215.411401 114.362496 
L 220.293424 121.741056 
L 225.175448 139.885056 
L 227.616459 148.182912 
L 230.057471 154.08576 
L 232.498483 150.45696 
L 234.939494 148.787712 
L 239.821517 161.270784 
L 242.262529 160.182144 
L 244.703541 160.6176 
L 249.585564 173.705472 
L 254.467587 187.34976 
L 259.34961 199.977984 
L 261.790622 200.824704 
L 264.231634 202.10688 
L 266.672645 206.122752 
L 269.113657 209.896704 
L 271.554668 212.87232 
L 273.99568 217.807488 
L 278.877703 228.669696 
L 281.318715 228.210048 
L 283.759727 228.693888 
L 288.64175 237.475584 
L 293.523773 248.67648 
L 298.405796 252.014976 
L 303.28782 255.063168 
L 308.169843 263.094912 
L 310.610854 264.256128 
L 313.051866 264.715776 
L 315.492878 265.73184 
L 317.933889 266.893056 
L 320.374901 269.699328 
L 322.815913 272.916864 
L 325.256924 274.634496 
L 327.697936 275.28768 
L 330.138947 275.602176 
L 332.579959 276.763392 
L 337.461982 280.24704 
L 339.902994 282.30336 
L 342.344005 284.093568 
L 347.226029 284.577408 
L 352.108052 285.545088 
L 356.990075 287.432064 
L 361.872098 288.690048 
L 366.754122 288.10944 
L 369.195133 288.423936 
L 371.636145 288.859392 
L 376.518168 290.359296 
L 378.95918 291.447936 
L 381.400191 292.004352 
L 386.282215 292.391424 
L 391.164238 292.415616 
L 393.605249 292.22208 
L 396.046261 291.907584 
L 398.487273 291.206016 
L 398.487273 291.206016 
" clip-path="url(#pd1a79f31a6)" style="fill: none; stroke: #ff0000; stroke-width: 1.5; stroke-linecap: square"/>
   </g>
   <g id="line2d_15">
    <path d="M 73.832727 295.488 
L 78.714751 231.717888 
L 81.155762 206.727552 
L 83.596774 192.139776 
L 86.037785 175.568256 
L 88.478797 157.71456 
L 90.919809 149.150592 
L 93.36082 142.909056 
L 95.801832 132.67584 
L 98.242843 124.184448 
L 100.683855 122.684544 
L 103.124867 119.394432 
L 108.00689 98.371584 
L 110.447902 91.355904 
L 112.888913 85.549824 
L 117.770936 83.420928 
L 120.211948 75.510144 
L 122.65296 65.881728 
L 125.093971 68.688 
L 127.534983 71.010432 
L 132.417006 71.83296 
L 134.858018 65.712384 
L 137.299029 60.486912 
L 139.740041 58.841856 
L 142.181053 57.366144 
L 147.063076 54.971136 
L 149.504087 54.076032 
L 151.945099 53.568 
L 154.386111 54.487296 
L 156.827122 56.446848 
L 161.709146 63.462528 
L 164.150157 58.64832 
L 166.591169 56.567808 
L 171.473192 74.179584 
L 176.355215 87.170688 
L 178.796227 81.679104 
L 181.237239 77.832576 
L 186.119262 83.396736 
L 188.560273 88.16256 
L 191.001285 94.21056 
L 195.883308 92.710656 
L 198.32432 95.05728 
L 200.765332 98.008704 
L 205.647355 102.508416 
L 208.088366 108.411264 
L 210.529378 113.733504 
L 212.97039 113.225472 
L 215.411401 114.362496 
L 220.293424 121.741056 
L 225.175448 139.885056 
L 227.616459 148.182912 
L 230.057471 154.08576 
L 232.498483 150.45696 
L 234.939494 148.787712 
L 239.821517 161.270784 
L 242.262529 160.182144 
L 244.703541 160.6176 
L 249.585564 173.705472 
L 254.467587 187.34976 
L 259.34961 199.977984 
L 261.790622 200.824704 
L 264.231634 202.10688 
L 266.672645 206.122752 
L 269.113657 209.896704 
L 271.554668 212.87232 
L 273.99568 217.807488 
L 278.877703 228.669696 
L 281.318715 228.210048 
L 283.759727 228.693888 
L 288.64175 237.475584 
L 293.523773 248.67648 
L 298.405796 252.014976 
L 303.28782 255.063168 
L 308.169843 263.094912 
L 310.610854 264.256128 
L 313.051866 264.715776 
L 315.492878 265.73184 
L 317.933889 266.893056 
L 320.374901 269.699328 
L 322.815913 272.916864 
L 325.256924 274.634496 
L 327.697936 275.28768 
L 330.138947 275.602176 
L 332.579959 276.763392 
L 337.461982 280.24704 
L 339.902994 282.30336 
L 342.344005 284.093568 
L 347.226029 284.577408 
L 352.108052 285.545088 
L 356.990075 287.432064 
L 361.872098 288.690048 
L 366.754122 288.10944 
L 369.195133 288.423936 
L 371.636145 288.859392 
L 376.518168 290.359296 
L 378.95918 291.447936 
L 381.400191 292.004352 
L 386.282215 292.391424 
L 391.164238 292.415616 
L 393.605249 292.22208 
L 396.046261 291.907584 
L 398.487273 291.206016 
L 398.487273 291.206016 
" clip-path="url(#pd1a79f31a6)" style="fill: none; stroke: #008000; stroke-width: 1.5; stroke-linecap: square"/>
   </g>
   <g id="line2d_16">
    <path d="M 73.832727 295.488 
L 78.714751 231.717888 
L 81.155762 206.727552 
L 83.596774 192.139776 
L 86.037785 175.568256 
L 88.478797 157.71456 
L 90.919809 149.150592 
L 93.36082 142.909056 
L 95.801832 132.67584 
L 98.242843 124.184448 
L 100.683855 122.684544 
L 103.124867 119.394432 
L 108.00689 98.371584 
L 110.447902 91.355904 
L 112.888913 85.549824 
L 117.770936 83.420928 
L 120.211948 75.510144 
L 122.65296 65.881728 
L 125.093971 68.688 
L 127.534983 71.010432 
L 132.417006 71.83296 
L 134.858018 65.712384 
L 137.299029 60.486912 
L 139.740041 58.841856 
L 142.181053 57.366144 
L 147.063076 54.971136 
L 149.504087 54.076032 
L 151.945099 53.568 
L 154.386111 54.487296 
L 156.827122 56.446848 
L 161.709146 63.462528 
L 164.150157 58.64832 
L 166.591169 56.567808 
L 171.473192 74.179584 
L 176.355215 87.170688 
L 178.796227 81.679104 
L 181.237239 77.832576 
L 186.119262 83.396736 
L 188.560273 88.16256 
L 191.001285 94.21056 
L 195.883308 92.710656 
L 198.32432 95.05728 
L 200.765332 98.008704 
L 205.647355 102.508416 
L 208.088366 108.411264 
L 210.529378 113.733504 
L 212.97039 113.225472 
L 215.411401 114.362496 
L 220.293424 121.741056 
L 225.175448 139.885056 
L 227.616459 148.182912 
L 230.057471 154.08576 
L 232.498483 150.45696 
L 234.939494 148.787712 
L 239.821517 161.270784 
L 242.262529 160.182144 
L 244.703541 160.6176 
L 249.585564 173.705472 
L 254.467587 187.34976 
L 259.34961 199.977984 
L 261.790622 200.824704 
L 264.231634 202.10688 
L 266.672645 206.122752 
L 269.113657 209.896704 
L 271.554668 212.87232 
L 273.99568 217.807488 
L 278.877703 228.669696 
L 281.318715 228.210048 
L 283.759727 228.693888 
L 288.64175 237.475584 
L 293.523773 248.67648 
L 298.405796 252.014976 
L 303.28782 255.063168 
L 308.169843 263.094912 
L 310.610854 264.256128 
L 313.051866 264.715776 
L 315.492878 265.73184 
L 317.933889 266.893056 
L 320.374901 269.699328 
L 322.815913 272.916864 
L 325.256924 274.634496 
L 327.697936 275.28768 
L 330.138947 275.602176 
L 332.579959 276.763392 
L 337.461982 280.24704 
L 339.902994 282.30336 
L 342.344005 284.093568 
L 347.226029 284.577408 
L 352.108052 285.545088 
L 356.990075 287.432064 
L 361.872098 288.690048 
L 366.754122 288.10944 
L 369.195133 288.423936 
L 371.636145 288.859392 
L 376.518168 290.359296 
L 378.95918 291.447936 
L 381.400191 292.004352 
L 386.282215 292.391424 
L 391.164238 292.415616 
L 393.605249 292.22208 
L 396.046261 291.907584 
L 398.487273 291.206016 
L 398.487273 291.206016 
" clip-path="url(#pd1a79f31a6)" style="fill: none; stroke: #0000ff; stroke-width: 1.5; stroke-linecap: square"/>
   </g>
   <g id="patch_3">
    <path d="M 57.6 307.584 
L 57.6 41.472 
" style="fill: none; stroke: #000000; stroke-width: 0.8; stroke-linejoin: miter; stroke-linecap: square"/>
   </g>
   <g id="patch_4">
    <path d="M 414.72 307.584 
L 414.72 41.472 
" style="fill: none; stroke: #000000; stroke-width: 0.8; stroke-linejoin: miter; stroke-linecap: square"/>
   </g>
   <g id="patch_5">
    <path d="M 57.6 307.584 
L 414.72 307.584 
" style="fill: none; stroke: #000000; stroke-width: 0.8; stroke-linejoin: miter; stroke-linecap: square"/>
   </g>
   <g id="patch_6">
    <path d="M 57.6 41.472 
L 414.72 41.472 
" style="fill: none; stroke: #000000; stroke-width: 0.8; stroke-linejoin: miter; stroke-linecap: square"/>
   </g>
   <g id="text_14">
    <!-- PHASEONE IXH150 MONOCHROME LINEARIZED -->
    <g transform="translate(94.125 35.472) scale(0.12 -0.12)">
     <defs>
      <path id="DejaVuSans-50" d="M 1259 4147 
L 1259 2394 
L 2053 2394 
Q 2494 2394 2734 2622 
Q 2975 2850 2975 3272 
Q 2975 3691 2734 3919 
Q 2494 4147 2053 4147 
L 1259 4147 
z
M 628 4666 
L 2053 4666 
Q 2838 4666 3239 4311 
Q 3641 3956 3641 3272 
Q 3641 2581 3239 2228 
Q 2838 1875 2053 1875 
L 1259 1875 
L 1259 0 
L 628 0 
L 628 4666 
z
" transform="scale(0.015625)"/>
      <path id="DejaVuSans-48" d="M 628 4666 
L 1259 4666 
L 1259 2753 
L 3553 2753 
L 3553 4666 
L 4184 4666 
L 4184 0 
L 3553 0 
L 3553 2222 
L 1259 2222 
L 1259 0 
L 628 0 
L 628 4666 
z
" transform="scale(0.015625)"/>
      <path id="DejaVuSans-41" d="M 2188 4044 
L 1331 1722 
L 3047 1722 
L 2188 4044 
z
M 1831 4666 
L 2547 4666 
L 4325 0 
L 3669 0 
L 3244 1197 
L 1141 1197 
L 716 0 
L 50 0 
L 1831 4666 
z
" transform="scale(0.015625)"/>
      <path id="DejaVuSans-53" d="M 3425 4513 
L 3425 3897 
Q 3066 4069 2747 4153 
Q 2428 4238 2131 4238 
Q 1616 4238 1336 4038 
Q 1056 3838 1056 3469 
Q 1056 3159 1242 3001 
Q 1428 2844 1947 2747 
L 2328 2669 
Q 3034 2534 3370 2195 
Q 3706 1856 3706 1288 
Q 3706 609 3251 259 
Q 2797 -91 1919 -91 
Q 1588 -91 1214 -16 
Q 841 59 441 206 
L 441 856 
Q 825 641 1194 531 
Q 1563 422 1919 422 
Q 2459 422 2753 634 
Q 3047 847 3047 1241 
Q 3047 1584 2836 1778 
Q 2625 1972 2144 2069 
L 1759 2144 
Q 1053 2284 737 2584 
Q 422 2884 422 3419 
Q 422 4038 858 4394 
Q 1294 4750 2059 4750 
Q 2388 4750 2728 4690 
Q 3069 4631 3425 4513 
z
" transform="scale(0.015625)"/>
      <path id="DejaVuSans-45" d="M 628 4666 
L 3578 4666 
L 3578 4134 
L 1259 4134 
L 1259 2753 
L 3481 2753 
L 3481 2222 
L 1259 2222 
L 1259 531 
L 3634 531 
L 3634 0 
L 628 0 
L 628 4666 
z
" transform="scale(0.015625)"/>
      <path id="DejaVuSans-4f" d="M 2522 4238 
Q 1834 4238 1429 3725 
Q 1025 3213 1025 2328 
Q 1025 1447 1429 934 
Q 1834 422 2522 422 
Q 3209 422 3611 934 
Q 4013 1447 4013 2328 
Q 4013 3213 3611 3725 
Q 3209 4238 2522 4238 
z
M 2522 4750 
Q 3503 4750 4090 4092 
Q 4678 3434 4678 2328 
Q 4678 1225 4090 567 
Q 3503 -91 2522 -91 
Q 1538 -91 948 565 
Q 359 1222 359 2328 
Q 359 3434 948 4092 
Q 1538 4750 2522 4750 
z
" transform="scale(0.015625)"/>
      <path id="DejaVuSans-4e" d="M 628 4666 
L 1478 4666 
L 3547 763 
L 3547 4666 
L 4159 4666 
L 4159 0 
L 3309 0 
L 1241 3903 
L 1241 0 
L 628 0 
L 628 4666 
z
" transform="scale(0.015625)"/>
      <path id="DejaVuSans-20" transform="scale(0.015625)"/>
      <path id="DejaVuSans-49" d="M 628 4666 
L 1259 4666 
L 1259 0 
L 628 0 
L 628 4666 
z
" transform="scale(0.015625)"/>
      <path id="DejaVuSans-58" d="M 403 4666 
L 1081 4666 
L 2241 2931 
L 3406 4666 
L 4084 4666 
L 2584 2425 
L 4184 0 
L 3506 0 
L 2194 1984 
L 872 0 
L 191 0 
L 1856 2491 
L 403 4666 
z
" transform="scale(0.015625)"/>
      <path id="DejaVuSans-4d" d="M 628 4666 
L 1569 4666 
L 2759 1491 
L 3956 4666 
L 4897 4666 
L 4897 0 
L 4281 0 
L 4281 4097 
L 3078 897 
L 2444 897 
L 1241 4097 
L 1241 0 
L 628 0 
L 628 4666 
z
" transform="scale(0.015625)"/>
      <path id="DejaVuSans-43" d="M 4122 4306 
L 4122 3641 
Q 3803 3938 3442 4084 
Q 3081 4231 2675 4231 
Q 1875 4231 1450 3742 
Q 1025 3253 1025 2328 
Q 1025 1406 1450 917 
Q 1875 428 2675 428 
Q 3081 428 3442 575 
Q 3803 722 4122 1019 
L 4122 359 
Q 3791 134 3420 21 
Q 3050 -91 2638 -91 
Q 1578 -91 968 557 
Q 359 1206 359 2328 
Q 359 3453 968 4101 
Q 1578 4750 2638 4750 
Q 3056 4750 3426 4639 
Q 3797 4528 4122 4306 
z
" transform="scale(0.015625)"/>
      <path id="DejaVuSans-52" d="M 2841 2188 
Q 3044 2119 3236 1894 
Q 3428 1669 3622 1275 
L 4263 0 
L 3584 0 
L 2988 1197 
Q 2756 1666 2539 1819 
Q 2322 1972 1947 1972 
L 1259 1972 
L 1259 0 
L 628 0 
L 628 4666 
L 2053 4666 
Q 2853 4666 3247 4331 
Q 3641 3997 3641 3322 
Q 3641 2881 3436 2590 
Q 3231 2300 2841 2188 
z
M 1259 4147 
L 1259 2491 
L 2053 2491 
Q 2509 2491 2742 2702 
Q 2975 2913 2975 3322 
Q 2975 3731 2742 3939 
Q 2509 4147 2053 4147 
L 1259 4147 
z
" transform="scale(0.015625)"/>
      <path id="DejaVuSans-4c" d="M 628 4666 
L 1259 4666 
L 1259 531 
L 3531 531 
L 3531 0 
L 628 0 
L 628 4666 
z
" transform="scale(0.015625)"/>
      <path id="DejaVuSans-5a" d="M 359 4666 
L 4025 4666 
L 4025 4184 
L 1075 531 
L 4097 531 
L 4097 0 
L 288 0 
L 288 481 
L 3238 4134 
L 359 4134 
L 359 4666 
z
" transform="scale(0.015625)"/>
      <path id="DejaVuSans-44" d="M 1259 4147 
L 1259 519 
L 2022 519 
Q 2988 519 3436 956 
Q 3884 1394 3884 2338 
Q 3884 3275 3436 3711 
Q 2988 4147 2022 4147 
L 1259 4147 
z
M 628 4666 
L 1925 4666 
Q 3281 4666 3915 4102 
Q 4550 3538 4550 2338 
Q 4550 1131 3912 565 
Q 3275 0 1925 0 
L 628 0 
L 628 4666 
z
" transform="scale(0.015625)"/>
     </defs>
     <use xlink:href="#DejaVuSans-50"/>
     <use xlink:href="#DejaVuSans-48" transform="translate(60.302734 0)"/>
     <use xlink:href="#DejaVuSans-41" transform="translate(135.498047 0)"/>
     <use xlink:href="#DejaVuSans-53" transform="translate(203.90625 0)"/>
     <use xlink:href="#DejaVuSans-45" transform="translate(267.382812 0)"/>
     <use xlink:href="#DejaVuSans-4f" transform="translate(330.566406 0)"/>
     <use xlink:href="#DejaVuSans-4e" transform="translate(409.277344 0)"/>
     <use xlink:href="#DejaVuSans-45" transform="translate(484.082031 0)"/>
     <use xlink:href="#DejaVuSans-20" transform="translate(547.265625 0)"/>
     <use xlink:href="#DejaVuSans-49" transform="translate(579.052734 0)"/>
     <use xlink:href="#DejaVuSans-58" transform="translate(608.544922 0)"/>
     <use xlink:href="#DejaVuSans-48" transform="translate(677.050781 0)"/>
     <use xlink:href="#DejaVuSans-31" transform="translate(752.246094 0)"/>
     <use xlink:href="#DejaVuSans-35" transform="translate(815.869141 0)"/>
     <use xlink:href="#DejaVuSans-30" transform="translate(879.492188 0)"/>
     <use xlink:href="#DejaVuSans-20" transform="translate(943.115234 0)"/>
     <use xlink:href="#DejaVuSans-4d" transform="translate(974.902344 0)"/>
     <use xlink:href="#DejaVuSans-4f" transform="translate(1061.181641 0)"/>
     <use xlink:href="#DejaVuSans-4e" transform="translate(1139.892578 0)"/>
     <use xlink:href="#DejaVuSans-4f" transform="translate(1214.697266 0)"/>
     <use xlink:href="#DejaVuSans-43" transform="translate(1293.408203 0)"/>
     <use xlink:href="#DejaVuSans-48" transform="translate(1363.232422 0)"/>
     <use xlink:href="#DejaVuSans-52" transform="translate(1438.427734 0)"/>
     <use xlink:href="#DejaVuSans-4f" transform="translate(1507.910156 0)"/>
     <use xlink:href="#DejaVuSans-4d" transform="translate(1586.621094 0)"/>
     <use xlink:href="#DejaVuSans-45" transform="translate(1672.900391 0)"/>
     <use xlink:href="#DejaVuSans-20" transform="translate(1736.083984 0)"/>
     <use xlink:href="#DejaVuSans-4c" transform="translate(1767.871094 0)"/>
     <use xlink:href="#DejaVuSans-49" transform="translate(1823.583984 0)"/>
     <use xlink:href="#DejaVuSans-4e" transform="translate(1853.076172 0)"/>
     <use xlink:href="#DejaVuSans-45" transform="translate(1927.880859 0)"/>
     <use xlink:href="#DejaVuSans-41" transform="translate(1991.064453 0)"/>
     <use xlink:href="#DejaVuSans-52" transform="translate(2059.472656 0)"/>
     <use xlink:href="#DejaVuSans-49" transform="translate(2128.955078 0)"/>
     <use xlink:href="#DejaVuSans-5a" transform="translate(2158.447266 0)"/>
     <use xlink:href="#DejaVuSans-45" transform="translate(2226.953125 0)"/>
     <use xlink:href="#DejaVuSans-44" transform="translate(2290.136719 0)"/>
    </g>
   </g>
  </g>
 </g>
 <defs>
  <clipPath id="pd1a79f31a6">
   <rect x="57.6" y="41.472" width="357.12" height="266.112"/>
  </clipPath>
 </defs>
</svg>
